<?xml version="1.0" encoding="utf-8"?>
<!-- Generator: Adobe Illustrator 16.0.0, SVG Export Plug-In . SVG Version: 6.00 Build 0)  -->
<!DOCTYPE svg PUBLIC "-//W3C//DTD SVG 1.1//EN" "http://www.w3.org/Graphics/SVG/1.1/DTD/svg11.dtd">
<svg version="1.1" id="Calque_1" xmlns="http://www.w3.org/2000/svg" xmlns:xlink="http://www.w3.org/1999/xlink" x="0px" y="0px"
	 width="271.5px" height="102px" viewBox="0 0 271.5 102" enable-background="new 0 0 271.5 102" xml:space="preserve">
<g>
	<g>
		<path fill="#FFFFFF" d="M21.6,54.9L19,42.8l2.7-0.6l2,9.7l6-1.3l0.5,2.4L21.6,54.9z"/>
		<path fill="#FFFFFF" d="M48.2,49.8l-1.6-2.5l-5.2,0.9L40.8,51l-2.7,0.5l3.2-13.2l2.5-0.4L51,49.3L48.2,49.8z M43,41.3l-1,4.2
			l3.2-0.5L43,41.3z"/>
		<path fill="#FFFFFF" d="M76.6,44l-2.1,0l0,3.7l-2.7,0l0-12.4l5.1,0c3,0,4.7,1.7,4.8,4.3v0C81.6,42.5,79.4,44,76.6,44z M78.8,39.6
			c0-1.2-0.9-1.9-2.2-1.9l-2.1,0l0,3.8l2.2,0C78,41.6,78.8,40.7,78.8,39.6L78.8,39.6z"/>
		<path fill="#FFFFFF" d="M90.2,48.4l2.1-12.2l9.2,1.6l-0.4,2.4l-6.5-1.1l-0.4,2.5l5.7,1l-0.4,2.4l-5.7-1l-0.4,2.6l6.6,1.2L99.4,50
			L90.2,48.4z"/>
		<path fill="#FFFFFF" d="M116.6,44.8l-3.1,9.3l-2.6-0.9l3.1-9.3l-3.6-1.2l0.8-2.4l9.7,3.3l-0.8,2.4L116.6,44.8z"/>
		<path fill="#FFFFFF" d="M125.3,58.9l5.3-11.2l2.5,1.2L127.7,60L125.3,58.9z"/>
		<path fill="#FFFFFF" d="M146.1,59.1l-4.9,8.5l-2.4-1.4l4.9-8.5l-3.3-1.9l1.3-2.2l8.9,5.1l-1.3,2.2L146.1,59.1z"/>
		<path fill="#FFFFFF" d="M152.4,73.9l5.6-11l8.3,4.2l-1.1,2.2l-5.9-3l-1.1,2.2l5.2,2.7l-1.1,2.2l-5.2-2.7l-1.2,2.3l6,3.1l-1.1,2.2
			L152.4,73.9z"/>
		<path fill="#FFFFFF" d="M191.3,90.2l2.4-7.7l-4.9,4l-0.1,0l-1.7-6l-2.4,7.7l-2.5-0.8l3.7-11.8l2.8,0.9l1.5,6l4.7-4l2.8,0.9
			L193.9,91L191.3,90.2z"/>
		<path fill="#FFFFFF" d="M205.8,93.5l0.4-12.4l9.3,0.3l-0.1,2.4l-6.6-0.2l-0.1,2.5l5.8,0.2l-0.1,2.4l-5.8-0.2l-0.1,2.6l6.7,0.2
			l-0.1,2.4L205.8,93.5z"/>
		<path fill="#FFFFFF" d="M234.8,88.7l-4-2.6l-2,0.8l1.5,3.7l-2.5,1l-4.7-11.4l5.2-2.2c2.7-1.1,4.9-0.4,5.9,2l0,0
			c0.8,1.8,0.2,3.4-1,4.6l4.5,2.9L234.8,88.7z M231.7,81.1c-0.4-1.1-1.4-1.3-2.7-0.8l-2.5,1l1.4,3.3l2.5-1.1
			C231.7,83,232.1,82.1,231.7,81.1L231.7,81.1z"/>
	</g>
	<path fill-rule="evenodd" clip-rule="evenodd" fill="#FFFFFF" d="M228.3,11.5c7,0.4,13,5.3,14.8,11.6c2.1,7.2,0,14.2-5.3,18.4
		c-9.3,7.3-19.8,5.6-29.2,1.9c-21.4-8.7-55.9-26.7-68.3-30.4c-1.3-0.4-3.2-0.9-4.5-1.3c2.1-5.4,43.9,12.8,55.3,16.9
		c9.2,3.3,18.6,7.4,28.6,5.4c4.3-0.9,9.2-3.3,11.9-6.5C235.6,22.7,233.8,16.4,228.3,11.5z"/>
	<path fill-rule="evenodd" clip-rule="evenodd" fill="#FFFFFF" d="M254.1,28.3c0-11.8-11.6-21.4-25.9-21.4c-1.1,0-2.1,0.1-3.2,0.2
		c-0.2,0-0.3,0-0.4,0.1c1.6,0.1,2.3,0.2,3,0.2c11.5,0.5,18.7,8.7,20.5,16.6c2.1,9.5-4,19-13.2,23.1c-3.6,1.6-7.1,2.3-10.5,2.5
		c1.2,0.1,2.5,0.2,3.8,0.2C242.5,49.7,254.1,40.1,254.1,28.3z"/>
	<path fill-rule="evenodd" clip-rule="evenodd" fill="#FFFFFF" d="M258.1,22c-5.6-11.7-18.9-17.4-34.7-14.9c1.6,0.1,2.3,0.2,3,0.2
		c11.5,0.5,18.7,8.7,20.5,16.6c2.1,9.5-4,19-13.2,23.1c-11.4,5.1-22.1,1.3-32.3-3.1c-16.9-7.3-33.4-15.8-50.2-23.3
		c-14.8-6.6-30.3-10.9-46.8-9.4c-1.5,0.1-17.4,2.5-23.6,4.2c-17.1,4.8-34,10.3-50.9,15.7c-5.6,1.7-11.1,3.7-16.6,5.5
		c13.6-2.4,27-5.8,40.6-7.9c10.6-1.6,21.5-2.3,32.2-2.1c23.8,0.4,46.4,11.2,53.7,15.5c20.1,12,40.7,22.8,63.7,28.5
		c15,3.7,28.9,2,42.1-5.8C259.6,56.6,265.4,37.4,258.1,22z"/>
</g>
</svg>
