<?xml version="1.0" encoding="utf-8"?>
<!-- Generator: Adobe Illustrator 16.0.0, SVG Export Plug-In . SVG Version: 6.00 Build 0)  -->
<!DOCTYPE svg PUBLIC "-//W3C//DTD SVG 1.1//EN" "http://www.w3.org/Graphics/SVG/1.1/DTD/svg11.dtd">
<svg version="1.1" id="Calque_1" xmlns="http://www.w3.org/2000/svg" xmlns:xlink="http://www.w3.org/1999/xlink" x="0px" y="0px"
	 width="275px" height="100px" viewBox="0 0 275 100" enable-background="new 0 0 275 100" xml:space="preserve">
<g display="none">
	<linearGradient id="SVGID_1_" gradientUnits="userSpaceOnUse" x1="17.3281" y1="38.0576" x2="266.4258" y2="38.0576">
		<stop  offset="0" style="stop-color:#4E90C9"/>
		<stop  offset="0.5396" style="stop-color:#2B69AE"/>
		<stop  offset="1" style="stop-color:#124C99"/>
	</linearGradient>
	<path display="inline" fill-rule="evenodd" clip-rule="evenodd" fill="url(#SVGID_1_)" d="M263.247,20.544
		c-5.575-11.768-18.943-17.503-34.891-15.005c1.6,0.108,2.328,0.169,3.062,0.196c11.514,0.507,18.799,8.718,20.581,16.635
		c2.138,9.507-3.973,19.095-13.242,23.25c-11.49,5.168-22.194,1.343-32.434-3.083c-17.011-7.354-33.522-15.857-50.433-23.43
		c-14.907-6.676-30.467-10.928-47.049-9.487c-1.47,0.133-17.491,2.47-23.667,4.189c-17.17,4.777-34.127,10.382-51.16,15.725
		c-5.591,1.753-11.127,3.695-16.687,5.549c13.675-2.435,27.109-5.854,40.759-7.952c10.655-1.642,21.603-2.307,32.358-2.127
		c23.957,0.414,46.632,11.235,53.922,15.596c20.23,12.095,40.882,22.911,64.012,28.661c15.109,3.756,29.062,1.965,42.296-5.775
		C264.774,55.245,270.568,35.999,263.247,20.544z"/>
	<linearGradient id="SVGID_2_" gradientUnits="userSpaceOnUse" x1="139.2002" y1="27.2026" x2="247.7627" y2="27.2026">
		<stop  offset="0" style="stop-color:#4E90C9"/>
		<stop  offset="1" style="stop-color:#124C99"/>
	</linearGradient>
	<path display="inline" fill-rule="evenodd" clip-rule="evenodd" fill="url(#SVGID_2_)" d="M232.086,9.986
		c7.047,0.437,13.021,5.293,14.86,11.627c2.115,7.241,0.039,14.292-5.297,18.473c-9.315,7.312-19.881,5.675-29.294,1.958
		c-21.479-8.751-56.157-26.811-68.646-30.53c-1.271-0.426-3.256-0.945-4.51-1.314c2.091-5.42,44.129,12.863,55.526,16.964
		c9.266,3.335,18.679,7.435,28.765,5.405c4.311-0.877,9.206-3.269,11.944-6.548C239.427,21.211,237.616,14.908,232.086,9.986z"/>
	<path display="inline" fill-rule="evenodd" clip-rule="evenodd" fill="none" d="M11.308,58.806
		c13.675-2.437,27.111-5.855,40.754-7.954c10.662-1.638,21.604-2.307,32.363-2.126c23.954,0.413,46.626,11.232,53.919,15.596
		c20.231,12.095,40.883,22.911,64.015,28.662c15.108,3.756,29.06,1.963,42.297-5.777c14.095-8.238,19.891-27.486,12.571-42.937
		c-5.576-11.773-18.942-17.504-34.886-15.008"/>
	<text transform="matrix(0.9785 -0.2061 0.2061 0.9785 24.1748 56.2861)" display="inline"><tspan x="0" y="0" fill="#2B69AE" font-family="'GothamBold'" font-size="17.7626">L</tspan><tspan x="18.005" y="-0.013" fill="#2B69AE" font-family="'GothamBold'" font-size="17.7626" rotate="2.311">A</tspan><tspan x="38.807" y="1.291" fill="#2B69AE" font-family="'GothamBold'" font-size="17.7626" rotate="7.267"> </tspan><tspan x="50.912" y="2.984" fill="#2B69AE" font-family="'GothamBold'" font-size="17.7626" rotate="11.767">P</tspan><tspan x="68.871" y="7.198" fill="#2B69AE" font-family="'GothamBold'" font-size="17.7626" rotate="21.781">E</tspan><tspan x="85.877" y="14.61" fill="#2B69AE" font-family="'GothamBold'" font-size="17.7626" rotate="30.491">T</tspan><tspan x="101.332" y="24.341" fill="#2B69AE" font-family="'GothamBold'" font-size="17.7626" rotate="37.204">I</tspan><tspan x="111.157" y="32.453" fill="#2B69AE" font-family="'GothamBold'" font-size="17.7626" rotate="41.997">T</tspan><tspan x="125.064" y="44.785" fill="#2B69AE" font-family="'GothamBold'" font-size="17.7626" rotate="38.939">E</tspan><tspan x="140.462" y="56.786" fill="#125F9E" font-family="'GothamBold'" font-size="17.7626" rotate="35.044"> </tspan><tspan x="151.315" y="64.268" fill="#7BB82C" font-family="'GothamBold'" font-size="17.7626" rotate="29.395">M</tspan><tspan x="173.141" y="75.653" fill="#7BB82C" font-family="'GothamBold'" font-size="17.7626" rotate="13.977">E</tspan><tspan x="195.18" y="78.939" fill="#7BB82C" font-family="'GothamBold'" font-size="17.7626" rotate="-10.586">R</tspan></text>
	
		<radialGradient id="SVGID_3_" cx="234.7168" cy="26.9155" r="21.6432" gradientTransform="matrix(1 0 0 0.993 0 0.1874)" gradientUnits="userSpaceOnUse">
		<stop  offset="0.9153" style="stop-color:#7AB82E"/>
		<stop  offset="1" style="stop-color:#9EC54A"/>
	</radialGradient>
	<path display="inline" fill-rule="evenodd" clip-rule="evenodd" fill="url(#SVGID_3_)" d="M258.08,26.814
		c0-11.874-11.671-21.499-26.064-21.499c-1.085,0-2.152,0.062-3.204,0.17c-0.153,0.019-0.301,0.031-0.455,0.054
		c1.6,0.108,2.328,0.169,3.062,0.196c11.514,0.507,18.799,8.718,20.581,16.635c2.138,9.507-3.973,19.095-13.242,23.25
		c-3.586,1.615-7.096,2.352-10.542,2.464c1.243,0.151,2.509,0.233,3.801,0.233C246.409,48.317,258.08,38.69,258.08,26.814z"/>
</g>
<g display="none">
	<path display="inline" fill-rule="evenodd" clip-rule="evenodd" fill="none" d="M9.941,58.847
		c13.612-2.427,26.987-5.829,40.566-7.917c10.612-1.633,21.502-2.298,32.214-2.116c23.84,0.41,46.408,11.18,53.666,15.521
		c20.14,12.039,40.695,22.807,63.72,28.529c15.037,3.739,28.924,1.955,42.101-5.748c14.031-8.202,19.801-27.36,12.515-42.741
		c-5.552-11.718-18.857-17.422-34.727-14.938"/>
	<text transform="matrix(0.9785 -0.2062 0.2062 0.9785 22.7471 56.3379)" display="inline"><tspan x="0" y="0" fill="#1D1D1B" font-family="'GothamBold'" font-size="17.6801">L</tspan><tspan x="17.921" y="-0.013" fill="#1D1D1B" font-family="'GothamBold'" font-size="17.6801" rotate="2.32">A</tspan><tspan x="38.626" y="1.285" fill="#1D1D1B" font-family="'GothamBold'" font-size="17.6801" rotate="7.27"> </tspan><tspan x="50.677" y="2.972" fill="#1D1D1B" font-family="'GothamBold'" font-size="17.6801" rotate="11.768">P</tspan><tspan x="68.552" y="7.167" fill="#1D1D1B" font-family="'GothamBold'" font-size="17.6801" rotate="21.784">E</tspan><tspan x="85.476" y="14.545" fill="#1D1D1B" font-family="'GothamBold'" font-size="17.6801" rotate="30.492">T</tspan><tspan x="100.841" y="24.218" fill="#1D1D1B" font-family="'GothamBold'" font-size="17.6801" rotate="37.194">I</tspan><tspan x="110.627" y="32.294" fill="#1D1D1B" font-family="'GothamBold'" font-size="17.6801" rotate="42.003">T</tspan><tspan x="124.457" y="44.56" fill="#1D1D1B" font-family="'GothamBold'" font-size="17.6801" rotate="38.945">E</tspan><tspan x="139.769" y="56.496" fill="#1D1D1B" font-family="'GothamBold'" font-size="17.6801" rotate="35.057"> </tspan><tspan x="150.583" y="63.957" fill="#1D1D1B" font-family="'GothamBold'" font-size="17.6801" rotate="29.407">M</tspan><tspan x="172.315" y="75.3" fill="#1D1D1B" font-family="'GothamBold'" font-size="17.6801" rotate="13.998">E</tspan><tspan x="194.273" y="78.577" fill="#1D1D1B" font-family="'GothamBold'" font-size="17.6801" rotate="-10.581">R</tspan></text>
	<g display="inline">
		<path fill-rule="evenodd" clip-rule="evenodd" fill="#1D1D1B" d="M232.061,12.73c5.076,0.683,9.469,3.667,11.973,7.778
			c-2.23-5.65-7.817-9.852-14.335-10.256C230.59,11.046,231.372,11.878,232.061,12.73z"/>
		<path fill-rule="evenodd" clip-rule="evenodd" fill="#1D1D1B" d="M142.077,11.881c10.827,0.918,42.054,14.385,51.614,17.827
			c9.223,3.319,18.594,7.401,28.631,5.38c4.291-0.872,9.163-3.255,11.888-6.517c2.914-3.51,2.714-7.813,0.239-11.79
			c1.248,3.27,0.927,6.607-1.418,9.433c-2.725,3.262-7.597,5.645-11.888,6.517c-10.037,2.021-19.408-2.061-28.632-5.38
			c-11.343-4.084-53.189-22.282-55.271-16.886c1.252,0.368,3.223,0.884,4.493,1.308C141.843,11.805,141.965,11.846,142.077,11.881z"
			/>
	</g>
	<path display="inline" fill-rule="evenodd" clip-rule="evenodd" fill="#1D1D1B" d="M261.896,25.576
		c-0.245-0.519-0.525-1.009-0.8-1.504c6.682,15.231,0.88,33.837-12.894,41.887c-13.176,7.703-27.062,9.487-42.101,5.751
		c-23.025-5.726-43.581-16.49-63.72-28.53c-7.256-4.342-29.825-15.11-53.665-15.522c-10.711-0.18-21.604,0.483-32.214,2.117
		c-6.396,0.983-12.745,2.261-19.097,3.59c-1.228,0.387-2.454,0.775-3.683,1.16c-5.564,1.745-11.074,3.679-16.608,5.524
		c13.61-2.426,26.985-5.828,40.566-7.917c10.609-1.634,21.503-2.297,32.214-2.117c23.84,0.412,46.409,11.181,53.665,15.522
		c20.139,12.04,40.694,22.805,63.72,28.53c15.039,3.736,28.925,1.952,42.101-5.751C263.413,60.114,269.182,40.958,261.896,25.576z"
		/>
	<g display="inline">
		<path fill-rule="evenodd" clip-rule="evenodd" fill="#1D1D1B" d="M237.005,7.799c10.849,1.029,19.507,6.446,23.713,15.32
			c1.978,4.176,2.985,8.629,3.136,13.066c0.182-5.207-0.808-10.508-3.136-15.424C255.166,9.047,241.86,3.34,225.99,5.826
			c1.588,0.108,2.313,0.168,3.046,0.195C231.979,6.151,234.639,6.792,237.005,7.799z"/>
		<path fill-rule="evenodd" clip-rule="evenodd" fill="#1D1D1B" d="M83.47,16.416c6.15-1.711,22.091-4.038,23.561-4.172
			c16.502-1.432,31.99,2.8,46.824,9.443c16.836,7.539,33.271,16.002,50.199,23.322c10.196,4.404,20.848,8.212,32.285,3.069
			c8.331-3.737,14.073-11.877,13.552-20.388c-0.557,7.626-5.994,14.64-13.552,18.03c-11.438,5.143-22.089,1.335-32.285-3.068
			c-16.929-7.321-33.363-15.784-50.199-23.323c-14.834-6.644-30.322-10.875-46.824-9.443c-1.47,0.134-17.41,2.461-23.561,4.172
			C66.377,18.813,49.5,24.393,32.546,29.71c-5.563,1.745-11.074,3.68-16.608,5.525c6.021-1.073,11.994-2.338,17.961-3.595
			C50.397,26.452,66.832,21.043,83.47,16.416z"/>
	</g>
</g>
<g>
	<path fill-rule="evenodd" clip-rule="evenodd" fill="#1D1D1B" d="M261.883,20.627c-5.578-11.771-18.945-17.504-34.889-15.006
		c1.594,0.109,2.324,0.169,3.061,0.197c11.512,0.506,18.795,8.717,20.58,16.633c2.135,9.507-3.973,19.091-13.244,23.251
		c-11.49,5.165-22.191,1.341-32.435-3.083c-17.007-7.355-33.519-15.856-50.433-23.431c-14.902-6.675-30.463-10.926-47.041-9.487
		c-1.477,0.134-17.492,2.471-23.671,4.19c-17.172,4.777-34.127,10.383-51.159,15.726c-5.591,1.753-11.126,3.696-16.686,5.551
		c13.673-2.438,27.11-5.856,40.754-7.954c10.659-1.642,21.604-2.309,32.363-2.127c23.951,0.412,46.625,11.231,53.914,15.595
		c20.232,12.096,40.884,22.911,64.016,28.662c15.108,3.754,29.059,1.963,42.297-5.777C263.406,55.326,269.201,36.079,261.883,20.627
		z"/>
	<path fill-rule="evenodd" clip-rule="evenodd" fill="#1D1D1B" d="M230.719,10.068c7.049,0.438,13.02,5.292,14.861,11.625
		c2.113,7.239,0.041,14.294-5.299,18.477c-9.314,7.308-19.877,5.675-29.289,1.953c-21.483-8.751-56.156-26.809-68.646-30.528
		c-1.277-0.426-3.257-0.944-4.515-1.314c2.091-5.421,44.132,12.861,55.527,16.963c9.267,3.337,18.681,7.438,28.765,5.406
		c4.311-0.876,9.205-3.27,11.943-6.547C238.063,21.29,236.248,14.99,230.719,10.068z"/>
	<path fill-rule="evenodd" clip-rule="evenodd" fill="none" d="M9.941,58.888c13.675-2.438,27.112-5.856,40.754-7.954
		c10.662-1.64,21.603-2.309,32.364-2.125c23.95,0.411,46.624,11.23,53.915,15.593c20.233,12.096,40.884,22.912,64.016,28.662
		c15.106,3.756,29.057,1.964,42.295-5.775c14.098-8.24,19.893-27.487,12.572-42.939c-5.576-11.771-18.943-17.503-34.887-15.007"/>
	<text transform="matrix(0.9785 -0.2061 0.2061 0.9785 22.8062 56.3662)"><tspan x="0" y="0" fill="#1D1D1B" font-family="'GothamBold'" font-size="17.7622">L</tspan><tspan x="18.005" y="-0.013" fill="#1D1D1B" font-family="'GothamBold'" font-size="17.7622" rotate="2.318">A</tspan><tspan x="38.805" y="1.291" fill="#1D1D1B" font-family="'GothamBold'" font-size="17.7622" rotate="7.27"> </tspan><tspan x="50.913" y="2.983" fill="#1D1D1B" font-family="'GothamBold'" font-size="17.7622" rotate="11.767">P</tspan><tspan x="68.871" y="7.198" fill="#1D1D1B" font-family="'GothamBold'" font-size="17.7622" rotate="21.78">E</tspan><tspan x="85.874" y="14.609" fill="#1D1D1B" font-family="'GothamBold'" font-size="17.7622" rotate="30.494">T</tspan><tspan x="101.327" y="24.339" fill="#1D1D1B" font-family="'GothamBold'" font-size="17.7622" rotate="37.202">I</tspan><tspan x="111.155" y="32.451" fill="#1D1D1B" font-family="'GothamBold'" font-size="17.7622" rotate="41.998">T</tspan><tspan x="125.063" y="44.785" fill="#1D1D1B" font-family="'GothamBold'" font-size="17.7622" rotate="38.938">E</tspan><tspan x="140.474" y="56.794" fill="#1D1D1B" font-family="'GothamBold'" font-size="17.7622" rotate="35.039"> </tspan><tspan x="151.314" y="64.266" fill="#1D1D1B" font-family="'GothamBold'" font-size="17.7622" rotate="29.393">M</tspan><tspan x="173.138" y="75.651" fill="#1D1D1B" font-family="'GothamBold'" font-size="17.7622" rotate="13.975">E</tspan><tspan x="195.18" y="78.935" fill="#1D1D1B" font-family="'GothamBold'" font-size="17.7622" rotate="-10.584">R</tspan></text>
	<path fill-rule="evenodd" clip-rule="evenodd" fill="#1D1D1B" d="M256.709,26.896c0-11.875-11.668-21.5-26.061-21.5
		c-1.086,0-2.154,0.061-3.205,0.167c-0.15,0.022-0.299,0.034-0.449,0.057c1.594,0.109,2.324,0.169,3.061,0.197
		c11.512,0.506,18.795,8.717,20.58,16.633c2.135,9.507-3.973,19.091-13.244,23.251c-3.588,1.612-7.098,2.349-10.541,2.464
		c1.24,0.149,2.51,0.23,3.799,0.23C245.041,48.396,256.709,38.771,256.709,26.896z"/>
</g>
</svg>
