<?xml version="1.0" encoding="utf-8"?>
<!-- Generator: Adobe Illustrator 16.0.0, SVG Export Plug-In . SVG Version: 6.00 Build 0)  -->
<!DOCTYPE svg PUBLIC "-//W3C//DTD SVG 1.1//EN" "http://www.w3.org/Graphics/SVG/1.1/DTD/svg11.dtd">
<svg version="1.1" id="Calque_1" xmlns="http://www.w3.org/2000/svg" xmlns:xlink="http://www.w3.org/1999/xlink" x="0px" y="0px"
	 width="265.8px" height="104.1px" viewBox="0 0 265.8 104.1" enable-background="new 0 0 265.8 104.1" xml:space="preserve">
<g>
	<linearGradient id="SVGID_1_" gradientUnits="userSpaceOnUse" x1="8.4102" y1="42.0439" x2="257.5078" y2="42.0439">
		<stop  offset="0" style="stop-color:#4E90C9"/>
		<stop  offset="0.5396" style="stop-color:#2B69AE"/>
		<stop  offset="1" style="stop-color:#124C99"/>
	</linearGradient>
	<path fill-rule="evenodd" clip-rule="evenodd" fill="url(#SVGID_1_)" d="M254.3,24.5c-5.6-11.8-18.9-17.5-34.9-15
		c1.6,0.1,2.3,0.2,3.1,0.2c11.5,0.5,18.8,8.7,20.6,16.6c2.1,9.5-4,19.1-13.2,23.3c-11.5,5.2-22.2,1.3-32.4-3.1
		c-17-7.4-33.5-15.9-50.4-23.4c-14.9-6.7-30.5-10.9-47-9.5c-1.5,0.1-17.5,2.5-23.7,4.2c-17.2,4.8-34.1,10.4-51.2,15.7
		c-5.6,1.8-11.1,3.7-16.7,5.5c13.7-2.4,27.1-5.9,40.8-8c10.7-1.6,21.6-2.3,32.4-2.1c24,0.4,46.6,11.2,53.9,15.6
		c20.2,12.1,40.9,22.9,64,28.7c15.1,3.8,29.1,2,42.3-5.8C255.9,59.2,261.7,40,254.3,24.5z"/>
	<linearGradient id="SVGID_2_" gradientUnits="userSpaceOnUse" x1="130.2822" y1="31.189" x2="238.8447" y2="31.189">
		<stop  offset="0" style="stop-color:#4E90C9"/>
		<stop  offset="1" style="stop-color:#124C99"/>
	</linearGradient>
	<path fill-rule="evenodd" clip-rule="evenodd" fill="url(#SVGID_2_)" d="M223.2,14c7,0.4,13,5.3,14.9,11.6c2.1,7.2,0,14.3-5.3,18.5
		c-9.3,7.3-19.9,5.7-29.3,2c-21.5-8.8-56.2-26.8-68.6-30.5c-1.3-0.4-3.3-0.9-4.5-1.3c2.1-5.4,44.1,12.9,55.5,17
		c9.3,3.3,18.7,7.4,28.8,5.4c4.3-0.9,9.2-3.3,11.9-6.5C230.5,25.2,228.7,18.9,223.2,14z"/>
	<g>
		<path fill="#2B69AE" d="M16.7,60l-2.6-12.2l2.7-0.6l2.1,9.7l6.1-1.3l0.5,2.4L16.7,60z"/>
		<path fill="#2B69AE" d="M43.5,54.8l-1.6-2.6l-5.2,0.9L36,56l-2.8,0.5l3.2-13.2l2.5-0.4l7.3,11.5L43.5,54.8z M38.2,46.3l-1,4.3
			l3.3-0.6L38.2,46.3z"/>
		<path fill="#2B69AE" d="M72,49l-2.1,0l0,3.7l-2.7,0l0-12.4l5.1,0c3,0,4.8,1.7,4.8,4.3v0C77,47.4,74.8,48.9,72,49z M74.2,44.6
			c0-1.2-0.9-1.9-2.2-1.9l-2.1,0l0,3.8l2.2,0C73.4,46.5,74.2,45.7,74.2,44.6L74.2,44.6z"/>
		<path fill="#2B69AE" d="M85.6,53.4l2.1-12.3l9.2,1.6l-0.4,2.4L90,44l-0.4,2.5l5.8,1l-0.4,2.4l-5.8-1l-0.4,2.6l6.7,1.2L94.9,55
			L85.6,53.4z"/>
		<path fill="#2B69AE" d="M112.2,49.7l-3.2,9.4l-2.6-0.9l3.2-9.4l-3.6-1.2l0.8-2.4l9.8,3.3l-0.8,2.4L112.2,49.7z"/>
		<path fill="#2B69AE" d="M120.9,63.9l5.3-11.2l2.5,1.2l-5.3,11.2L120.9,63.9z"/>
		<path fill="#2B69AE" d="M141.9,64.1l-5,8.6l-2.4-1.4l5-8.6l-3.3-1.9l1.3-2.2l8.9,5.2l-1.3,2.2L141.9,64.1z"/>
		<path fill="#2B69AE" d="M148.2,79l5.7-11.1l8.4,4.3l-1.1,2.2l-5.9-3l-1.1,2.2l5.2,2.7l-1.1,2.2l-5.2-2.7l-1.2,2.3l6,3.1l-1.1,2.2
			L148.2,79z"/>
		<path fill="#7BB82C" d="M187.3,95.3l2.4-7.7l-4.9,4l-0.1,0l-1.7-6.1l-2.4,7.7l-2.6-0.8l3.7-11.9l2.8,0.9l1.5,6l4.7-4l2.8,0.9
			l-3.7,11.9L187.3,95.3z"/>
		<path fill="#7BB82C" d="M201.8,98.7l0.4-12.4l9.4,0.3l-0.1,2.4l-6.7-0.2l-0.1,2.5l5.9,0.2l-0.1,2.4l-5.9-0.2l-0.1,2.6l6.7,0.2
			l-0.1,2.4L201.8,98.7z"/>
		<path fill="#7BB82C" d="M230.9,93.8l-4-2.7l-2,0.8l1.5,3.7l-2.5,1l-4.8-11.5l5.3-2.2c2.7-1.1,4.9-0.4,5.9,2l0,0
			c0.8,1.9,0.2,3.4-1,4.6l4.5,2.9L230.9,93.8z M227.8,86.2c-0.4-1.1-1.4-1.3-2.7-0.8l-2.5,1l1.4,3.3l2.6-1.1
			C227.8,88.2,228.2,87.2,227.8,86.2L227.8,86.2z"/>
	</g>
	
		<radialGradient id="SVGID_3_" cx="225.7988" cy="30.9019" r="21.6432" gradientTransform="matrix(1 0 0 0.993 0 0.2151)" gradientUnits="userSpaceOnUse">
		<stop  offset="0.9153" style="stop-color:#7AB82E"/>
		<stop  offset="1" style="stop-color:#9EC54A"/>
	</radialGradient>
	<path fill-rule="evenodd" clip-rule="evenodd" fill="url(#SVGID_3_)" d="M249.2,30.8c0-11.9-11.7-21.5-26.1-21.5
		c-1.1,0-2.2,0.1-3.2,0.2c-0.2,0-0.3,0-0.5,0.1c1.6,0.1,2.3,0.2,3.1,0.2c11.5,0.5,18.8,8.7,20.6,16.6c2.1,9.5-4,19.1-13.2,23.3
		c-3.6,1.6-7.1,2.4-10.5,2.5c1.2,0.2,2.5,0.2,3.8,0.2C237.5,52.3,249.2,42.7,249.2,30.8z"/>
</g>
</svg>
