<?xml version="1.0" encoding="utf-8"?>
<!-- Generator: Adobe Illustrator 16.0.0, SVG Export Plug-In . SVG Version: 6.00 Build 0)  -->
<!DOCTYPE svg PUBLIC "-//W3C//DTD SVG 1.1//EN" "http://www.w3.org/Graphics/SVG/1.1/DTD/svg11.dtd">
<svg version="1.1" id="Calque_1" xmlns="http://www.w3.org/2000/svg" xmlns:xlink="http://www.w3.org/1999/xlink" x="0px" y="0px"
	 width="275px" height="100px" viewBox="0 0 275 100" enable-background="new 0 0 275 100" xml:space="preserve">
<g>
	<linearGradient id="SVGID_1_" gradientUnits="userSpaceOnUse" x1="17.3281" y1="38.0576" x2="266.4258" y2="38.0576">
		<stop  offset="0" style="stop-color:#4E90C9"/>
		<stop  offset="0.5396" style="stop-color:#2B69AE"/>
		<stop  offset="1" style="stop-color:#124C99"/>
	</linearGradient>
	<path fill-rule="evenodd" clip-rule="evenodd" fill="url(#SVGID_1_)" d="M263.247,20.544
		c-5.575-11.768-18.943-17.503-34.891-15.005c1.6,0.108,2.328,0.169,3.062,0.196c11.514,0.507,18.799,8.718,20.581,16.635
		c2.138,9.507-3.973,19.095-13.242,23.25c-11.49,5.168-22.194,1.343-32.434-3.083c-17.011-7.354-33.522-15.857-50.433-23.43
		c-14.907-6.676-30.467-10.928-47.049-9.487c-1.47,0.133-17.491,2.47-23.667,4.189c-17.17,4.777-34.127,10.382-51.16,15.725
		c-5.591,1.753-11.127,3.695-16.687,5.549c13.675-2.435,27.109-5.854,40.759-7.952c10.655-1.642,21.603-2.307,32.358-2.127
		c23.957,0.414,46.632,11.235,53.922,15.596c20.23,12.095,40.882,22.911,64.012,28.661c15.109,3.756,29.062,1.965,42.296-5.775
		C264.774,55.245,270.568,35.999,263.247,20.544z"/>
	<linearGradient id="SVGID_2_" gradientUnits="userSpaceOnUse" x1="139.2002" y1="27.2026" x2="247.7627" y2="27.2026">
		<stop  offset="0" style="stop-color:#4E90C9"/>
		<stop  offset="1" style="stop-color:#124C99"/>
	</linearGradient>
	<path fill-rule="evenodd" clip-rule="evenodd" fill="url(#SVGID_2_)" d="M232.086,9.986c7.047,0.437,13.021,5.293,14.86,11.627
		c2.115,7.241,0.039,14.292-5.297,18.473c-9.315,7.312-19.881,5.675-29.294,1.958c-21.479-8.751-56.157-26.811-68.646-30.53
		c-1.271-0.426-3.256-0.945-4.51-1.314c2.091-5.42,44.129,12.863,55.526,16.964c9.266,3.335,18.679,7.435,28.765,5.405
		c4.311-0.877,9.206-3.269,11.944-6.548C239.427,21.211,237.616,14.908,232.086,9.986z"/>
	<path fill-rule="evenodd" clip-rule="evenodd" fill="none" d="M11.308,58.806c13.675-2.437,27.111-5.855,40.754-7.954
		c10.662-1.638,21.604-2.307,32.363-2.126c23.954,0.413,46.626,11.232,53.919,15.596c20.231,12.095,40.883,22.911,64.015,28.662
		c15.108,3.756,29.06,1.963,42.297-5.777c14.095-8.238,19.891-27.486,12.571-42.937c-5.576-11.773-18.942-17.504-34.886-15.008"/>
	<text transform="matrix(0.9785 -0.2061 0.2061 0.9785 24.1748 56.2861)"><tspan x="0" y="0" fill="#2B69AE" font-family="'GothamBold'" font-size="17.7626">L</tspan><tspan x="18.005" y="-0.013" fill="#2B69AE" font-family="'GothamBold'" font-size="17.7626" rotate="2.311">A</tspan><tspan x="38.807" y="1.291" fill="#2B69AE" font-family="'GothamBold'" font-size="17.7626" rotate="7.267"> </tspan><tspan x="50.912" y="2.984" fill="#2B69AE" font-family="'GothamBold'" font-size="17.7626" rotate="11.767">P</tspan><tspan x="68.871" y="7.198" fill="#2B69AE" font-family="'GothamBold'" font-size="17.7626" rotate="21.781">E</tspan><tspan x="85.877" y="14.61" fill="#2B69AE" font-family="'GothamBold'" font-size="17.7626" rotate="30.491">T</tspan><tspan x="101.332" y="24.341" fill="#2B69AE" font-family="'GothamBold'" font-size="17.7626" rotate="37.204">I</tspan><tspan x="111.157" y="32.453" fill="#2B69AE" font-family="'GothamBold'" font-size="17.7626" rotate="41.997">T</tspan><tspan x="125.064" y="44.785" fill="#2B69AE" font-family="'GothamBold'" font-size="17.7626" rotate="38.939">E</tspan><tspan x="140.462" y="56.786" fill="#125F9E" font-family="'GothamBold'" font-size="17.7626" rotate="35.044"> </tspan><tspan x="151.315" y="64.268" fill="#7BB82C" font-family="'GothamBold'" font-size="17.7626" rotate="29.395">M</tspan><tspan x="173.141" y="75.653" fill="#7BB82C" font-family="'GothamBold'" font-size="17.7626" rotate="13.977">E</tspan><tspan x="195.18" y="78.939" fill="#7BB82C" font-family="'GothamBold'" font-size="17.7626" rotate="-10.586">R</tspan></text>
	
		<radialGradient id="SVGID_3_" cx="234.7168" cy="26.9155" r="21.6432" gradientTransform="matrix(1 0 0 0.993 0 0.1874)" gradientUnits="userSpaceOnUse">
		<stop  offset="0.9153" style="stop-color:#7AB82E"/>
		<stop  offset="1" style="stop-color:#9EC54A"/>
	</radialGradient>
	<path fill-rule="evenodd" clip-rule="evenodd" fill="url(#SVGID_3_)" d="M258.08,26.814c0-11.874-11.671-21.499-26.064-21.499
		c-1.085,0-2.152,0.062-3.204,0.17c-0.153,0.019-0.301,0.031-0.455,0.054c1.6,0.108,2.328,0.169,3.062,0.196
		c11.514,0.507,18.799,8.718,20.581,16.635c2.138,9.507-3.973,19.095-13.242,23.25c-3.586,1.615-7.096,2.352-10.542,2.464
		c1.243,0.151,2.509,0.233,3.801,0.233C246.409,48.317,258.08,38.69,258.08,26.814z"/>
</g>
</svg>
