<?xml version="1.0" encoding="utf-8"?>
<!-- Generator: Adobe Illustrator 16.0.0, SVG Export Plug-In . SVG Version: 6.00 Build 0)  -->
<!DOCTYPE svg PUBLIC "-//W3C//DTD SVG 1.1//EN" "http://www.w3.org/Graphics/SVG/1.1/DTD/svg11.dtd">
<svg version="1.1" id="Calque_1" xmlns="http://www.w3.org/2000/svg" xmlns:xlink="http://www.w3.org/1999/xlink" x="0px" y="0px"
	 width="10.4px" height="10.8px" viewBox="0 0 10.4 10.8" enable-background="new 0 0 10.4 10.8" xml:space="preserve">
<path d="M-18.4,4.6l-3.1,3.1c0,0-0.1,0.1-0.2,0.1s-0.1,0-0.2-0.1l-0.3-0.3c0,0-0.1-0.1-0.1-0.2c0-0.1,0-0.1,0.1-0.2l2.6-2.6
	l-2.6-2.6c0,0-0.1-0.1-0.1-0.2s0-0.1,0.1-0.2l0.3-0.3c0,0,0.1-0.1,0.2-0.1s0.1,0,0.2,0.1l3.1,3.1c0,0,0.1,0.1,0.1,0.2
	S-18.4,4.6-18.4,4.6z"/>
<path d="M-23.8-10.4l-2.6,2.6l2.6,2.6c0,0,0.1,0.1,0.1,0.2s0,0.1-0.1,0.2l-0.3,0.3c0,0-0.1,0.1-0.2,0.1s-0.1,0-0.2-0.1l-3.1-3.1
	c0,0-0.1-0.1-0.1-0.2s0-0.1,0.1-0.2l3.1-3.1c0,0,0.1-0.1,0.2-0.1s0.1,0,0.2,0.1l0.3,0.3c0,0,0.1,0.1,0.1,0.2
	C-23.8-10.5-23.8-10.5-23.8-10.4z"/>
<path fill="#6F6F6E" d="M0.5,4.8l4.4-4.4C5,0.3,5.3,0.2,5.5,0.2s0.4,0.1,0.6,0.2l0.5,0.5c0.2,0.2,0.3,0.4,0.3,0.6S6.7,2,6.6,2.1
	l-2,2h4.7c0.5,0,0.8,0.4,0.8,0.9l0,0.9c0,0.5-0.3,0.9-0.8,0.9H4.6l2,2C6.7,8.8,6.8,9,6.8,9.2c0,0.2-0.1,0.4-0.3,0.6l-0.5,0.5
	c-0.2,0.2-0.4,0.3-0.6,0.3S5,10.5,4.9,10.4L0.5,6C0.3,5.8,0.3,5.6,0.3,5.4C0.3,5.2,0.3,4.9,0.5,4.8z"/>
<path d="M3.8-16.6c-2.8,0-5.1-2.3-5.1-5.1s2.3-5.1,5.1-5.1s5.1,2.3,5.1,5.1S6.6-16.6,3.8-16.6z M7.1-22l-0.6-0.6l-2.4-2.4
	c-0.1-0.1-0.2-0.1-0.3-0.1s-0.2,0-0.3,0.1l-0.6,0.6c-0.1,0.1-0.1,0.2-0.1,0.3s0,0.2,0.1,0.3l1.3,1.3H0.8c-0.2,0-0.4,0.2-0.4,0.4v0.9
	c0,0.2,0.2,0.4,0.4,0.4h3.4l-1.3,1.3c-0.1,0.1-0.1,0.2-0.1,0.3s0,0.2,0.1,0.3l0.6,0.6c0.1,0.1,0.2,0.1,0.3,0.1s0.2,0,0.3-0.1
	l2.4-2.4l0.6-0.6c0.1-0.1,0.1-0.2,0.1-0.3S7.2-21.9,7.1-22z"/>
</svg>
