<?xml version="1.0" encoding="utf-8"?>
<!-- Generator: Adobe Illustrator 16.0.0, SVG Export Plug-In . SVG Version: 6.00 Build 0)  -->
<!DOCTYPE svg PUBLIC "-//W3C//DTD SVG 1.1//EN" "http://www.w3.org/Graphics/SVG/1.1/DTD/svg11.dtd">
<svg version="1.1" id="Calque_1" xmlns="http://www.w3.org/2000/svg" xmlns:xlink="http://www.w3.org/1999/xlink" x="0px" y="0px"
	 width="768px" height="800px" viewBox="0 0 768 800" enable-background="new 0 0 768 800" xml:space="preserve">
<path opacity="0.2" fill="#DBDBDB" d="M647.5,386.7c-4.1-0.7-61,11.1-81.4,13.3c-36.7,4-77.1,8.4-116.4,5.6
	c-0.9-0.1-1.9-0.2-2.8-0.3c0.1-4.2,1.7-8,3.6-11.6c1.4-2.7,1.9-5.6,2.5-8.6c1.1-4,4.8-16.5,11.6-31.1c2.8-5.2,5.2-10.6,8.8-15.4
	c6-8.2,22.6-21.5,23.2-21.8c8-4.6,53.7-33.9,68.7-44.7c3.3-2.4,18.4-9.5,22.3-12.6c5.5-4.5,11.7-8.1,17.3-12.5
	c4.2-3.3,7.7-6.9,13.3-8.5c3.8-1.1,8.3-3.7,7.7-9.5c-0.1-1.1,0.5-2.6,1.7-2.9c2.7-0.6,2.2-2.2,2-4.2c-0.3-2.6,0.2-5.3-1.7-7.4
	c-1.4-1.5-2.6-3.1-2.4-5.2c0.4-4.3-17.4-2.1-20.2,7.5c-1.3,4.4-1.7,9.7-6.2,12.6c-3.5,2.3-7.1,4.6-10.9,6.3
	c-11.9,5.4-39.7,15.2-49.7,23.7c-18.2,15.5-49.6,24-51.9,24.2c-14.5,1.2-24.4,5.6-29.1,8.1c-2.2,1.1-3.9,1.1-5.9,0.7
	c-0.6-0.1-1.5-0.4-1.6-1.2c0-0.5-0.5-3.9,3.9-12.1c8.3-3.6,15-12.8,15.1-29.2c0.1-5.2-4.8-17.6-17.4-21.3
	c-12.5-4.6-23.4,0.8-27.4,5.1c-8.1,8.9-8.1,17.3-8.1,20.4c0,1.2,0.1,2.4,0.4,3.5c-2.5,18-9,21.9-9.1,22.4
	c-0.6-0.8-11.5-2.4-13.2-2.1c-8.6,1.1-30.9-19.2-33.9-23.2c-0.1-0.2-0.3-0.4-0.4-0.6c-4.1-7.7-10.3-13.8-16.2-20.1
	c-0.7-0.8-19.2-15.8-23.6-29.4c-1.8-5.7-10.3-15.7-12.8-21.1c-1-2.1-1.5-4.5-2.5-6.6c-2.4-4.8-1.9-9.4-0.3-14.3
	c0.6-1.8,1.1-3.4,1.4-4.9c56.8-49.5,121.8-104.3,131.7-112.7c1.5-0.8,2.6-2.4,2.6-4.3c0-2.7-2.2-4.9-4.8-4.9c-0.7,0-1.4,0.2-2,0.5
	l-0.1-0.1c-0.2,0.2-0.4,0.4-0.6,0.5c-0.3,0.2-0.6,0.4-0.9,0.7c-1.2,1.1-2.5,2.1-3.7,3.2c-4.9,4.2-9.9,8.4-14.9,12.6
	c-7.2,6.2-14.5,12.3-21.7,18.5c-9,7.6-18,15.2-26.9,22.9c-10,8.6-20.1,17.1-30.2,25.6c-10.3,8.7-20.4,17.4-30.6,26.1
	c-0.2,0.2-0.4,0.3-0.6,0.5c-0.9-0.9-2-1.8-3.3-2.7c0.5-1.3-12.9-2.1-20.7,9.9c-2.3,3.5-1.7,3.6,0.8,6.9c0.6,0.8,1.3,2.1,2,3.7
	c-2.9,2.4-5.7,4.8-8.6,7.3c-8.7,7.5-17.3,15.1-26.2,22.4c-7.2,5.9-14.5,11.7-21.2,18.1c-5.4,5.1-11.1,9.5-17.4,13.4
	c-0.6,0.4-1.3,0.7-1.9,1.1c-9.3,5.2-20.1,7.2-30,11c-13.7,5.3-27.2,11-39.7,18.8c-6.5,4-12.8,8.6-18.1,14.1
	c-25.8,26.8,59.8,85.9,99.9-32.2c5.7-8.1,33.2-33.5,67.1-63.3c1.3,4.1,2.3,7.9,2.6,9.8c1.7,9.1,4.6,17.7,7.7,26.3
	c4.5,12.2,12.7,22.1,21,31.8c6.2,7.1,43.8,53.2,41.1,73c-0.8,6,0.6,11.9,1,17.8c0,0.6,0.1,1.3,0.2,1.8c0.2,3.2,0.9,18.6,1,27.2
	c-0.1,0.9-0.2,2.1-0.2,3.7c-0.3,7.5,1.4,15-0.7,22.4c0,0,0,0,0,0c-89.3-9.6-160.3-18.6-164.7-17.2c-2.5,0.8,5.5,32.9,9.7,34.2
	c11.1,3.3,107.1-21.5,232.1,16.8c0.7,0.3,1.3,0.6,2,0.6c4.8,1.5,9.6,3.1,14.5,4.7c18.3,4.2,126.2,43.5,198.7-34.8
	C655.1,389.9,653.8,387.8,647.5,386.7z"/>
</svg>
