<?xml version="1.0" encoding="utf-8"?>
<!-- Generator: Adobe Illustrator 16.0.0, SVG Export Plug-In . SVG Version: 6.00 Build 0)  -->
<!DOCTYPE svg PUBLIC "-//W3C//DTD SVG 1.1//EN" "http://www.w3.org/Graphics/SVG/1.1/DTD/svg11.dtd">
<svg version="1.1" id="Calque_1" xmlns="http://www.w3.org/2000/svg" xmlns:xlink="http://www.w3.org/1999/xlink" x="0px" y="0px"
	 width="1280px" height="800px" viewBox="0 0 1280 800" enable-background="new 0 0 1280 800" xml:space="preserve">
<g>
	<polyline fill="none" stroke="#FFFFFF" stroke-miterlimit="10" points="860.979,363.445 867.145,349.802 852.339,351.236 	"/>
	<polyline fill="none" stroke="#FFFFFF" stroke-miterlimit="10" points="856.674,347.958 871.479,346.52 865.31,360.167 	"/>
</g>
<g>
	<path d="M17.333,198.272l0.917-1.095c1.367,1.246,2.678,1.868,4.495,1.868c1.761,0,2.922-0.943,2.922-2.246v-0.037
		c0-1.227-0.656-1.925-3.409-2.511c-3.015-0.66-4.401-1.642-4.401-3.812v-0.038c0-2.076,1.816-3.604,4.307-3.604
		c1.91,0,3.277,0.547,4.606,1.623l-0.861,1.151c-1.218-1-2.435-1.434-3.783-1.434c-1.704,0-2.79,0.944-2.79,2.133v0.038
		c0,1.246,0.674,1.944,3.558,2.566c2.922,0.642,4.271,1.717,4.271,3.737v0.038c0,2.265-1.873,3.737-4.476,3.737
		C20.61,200.386,18.906,199.688,17.333,198.272z"/>
	<path d="M33.327,186.892h1.386l5.974,13.306h-1.591l-1.536-3.491h-7.135l-1.554,3.491h-1.517L33.327,186.892z M36.979,195.366
		l-2.977-6.738l-2.997,6.738H36.979z"/>
	<path d="M41.85,186.987h1.498l4.775,7.209l4.775-7.209h1.498v13.21h-1.479v-10.701l-4.775,7.077h-0.075l-4.776-7.058v10.682H41.85
		V186.987z"/>
	<path d="M56.684,186.987h4.906c2.959,0,4.906,1.585,4.906,4.189v0.038c0,2.85-2.359,4.322-5.15,4.322h-3.183v4.661h-1.479V186.987z
		 M61.402,194.177c2.173,0,3.596-1.17,3.596-2.907v-0.038c0-1.887-1.404-2.869-3.52-2.869h-3.315v5.813H61.402z"/>
	<path d="M66.891,199.197l8.483-10.871h-8.203v-1.34h10.225v1l-8.502,10.871h8.502v1.34H66.891V199.197z"/>
	<path d="M77.735,193.63v-0.038c0-3.643,2.715-6.833,6.705-6.833c3.989,0,6.667,3.152,6.667,6.794v0.038
		c0,3.642-2.715,6.832-6.705,6.832C80.413,200.424,77.735,197.272,77.735,193.63z M89.571,193.63v-0.038
		c0-3.001-2.172-5.455-5.169-5.455c-2.996,0-5.131,2.416-5.131,5.417v0.038c0,3,2.172,5.454,5.169,5.454
		C87.436,199.046,89.571,196.63,89.571,193.63z"/>
	<path d="M92.813,186.987h1.386l8.259,10.587v-10.587h1.442v13.21h-1.18l-8.465-10.833v10.833h-1.442V186.987z"/>
</g>
<g>
	<path d="M476.493,195.991v-0.039c0-3.737,2.771-6.832,6.629-6.832c2.378,0,3.802,0.849,5.112,2.095l-1.011,1.095
		c-1.105-1.057-2.34-1.812-4.12-1.812c-2.902,0-5.075,2.377-5.075,5.416v0.038c0,3.058,2.191,5.455,5.075,5.455
		c1.798,0,2.978-0.699,4.233-1.906l0.974,0.963c-1.367,1.396-2.865,2.32-5.243,2.32
		C479.283,202.784,476.493,199.784,476.493,195.991z"/>
	<path d="M489.472,189.348h1.479v5.869h7.565v-5.869h1.479v13.21h-1.479v-5.945h-7.565v5.945h-1.479V189.348z"/>
	<path d="M507.133,189.253h1.386l5.974,13.305h-1.592l-1.536-3.491h-7.135l-1.555,3.491h-1.517L507.133,189.253z M510.786,197.727
		l-2.978-6.738l-2.997,6.738H510.786z M507.152,185.799h1.348l2.061,2.227h-1.349l-1.404-1.132l-1.405,1.132h-1.311L507.152,185.799
		z"/>
	<path d="M515.656,189.348h1.498l4.775,7.209l4.775-7.209h1.498v13.21h-1.479v-10.701l-4.775,7.078h-0.075l-4.776-7.058v10.681
		h-1.441V189.348z"/>
	<path d="M530.49,189.348h9.476v1.358h-7.997v4.511h7.154v1.359h-7.154v4.624h8.09v1.359h-9.569V189.348z"/>
	<path d="M540.753,200.634l0.917-1.095c1.367,1.246,2.678,1.868,4.495,1.868c1.76,0,2.922-0.943,2.922-2.246v-0.038
		c0-1.227-0.656-1.925-3.408-2.51c-3.015-0.661-4.401-1.642-4.401-3.812v-0.038c0-2.076,1.817-3.604,4.307-3.604
		c1.91,0,3.277,0.547,4.606,1.623l-0.861,1.151c-1.218-1-2.435-1.434-3.783-1.434c-1.704,0-2.79,0.943-2.79,2.132v0.038
		c0,1.245,0.674,1.944,3.558,2.566c2.922,0.642,4.271,1.718,4.271,3.737v0.038c0,2.265-1.873,3.737-4.476,3.737
		C544.03,202.747,542.327,202.048,540.753,200.634z"/>
</g>
<g>
	<path d="M1215.835,225.41l0.918-1.095c1.366,1.246,2.678,1.869,4.494,1.869c1.76,0,2.921-0.943,2.921-2.246v-0.038
		c0-1.227-0.655-1.925-3.408-2.51c-3.016-0.66-4.401-1.642-4.401-3.812v-0.038c0-2.076,1.817-3.604,4.309-3.604
		c1.909,0,3.277,0.547,4.606,1.623l-0.862,1.151c-1.218-1-2.435-1.435-3.782-1.435c-1.705,0-2.791,0.944-2.791,2.133v0.038
		c0,1.245,0.675,1.944,3.558,2.566c2.922,0.642,4.271,1.718,4.271,3.737v0.038c0,2.265-1.873,3.737-4.476,3.737
		C1219.112,227.523,1217.407,226.825,1215.835,225.41z"/>
	<path d="M1231.829,214.029h1.386l5.975,13.306h-1.593l-1.536-3.492h-7.135l-1.554,3.492h-1.517L1231.829,214.029z M1235.48,222.503
		l-2.979-6.738l-2.996,6.738H1235.48z"/>
	<path d="M1239.678,221.805v-7.681h1.479v7.586c0,2.85,1.499,4.454,4.007,4.454c2.417,0,3.952-1.472,3.952-4.359v-7.681h1.479v7.567
		c0,3.851-2.191,5.851-5.469,5.851C1241.887,227.542,1239.678,225.542,1239.678,221.805z"/>
	<path d="M1252.076,226.334l8.483-10.87h-8.203v-1.34h10.226v1l-8.502,10.87h8.502v1.34h-10.506V226.334z"/>
	<path d="M1264.231,214.124h9.475v1.358h-7.996v4.511h7.154v1.358h-7.154v4.624h8.091v1.359h-9.569V214.124z"/>
</g>
<g>
	<path d="M266.605,222.97h1.648l4.663,11.38l4.682-11.38h1.591l-5.636,13.305h-1.311L266.605,222.97z"/>
	<path d="M283.33,222.875h1.386l5.974,13.306h-1.591l-1.536-3.492h-7.135l-1.554,3.492h-1.517L283.33,222.875z M286.981,231.349
		l-2.978-6.737l-2.996,6.737H286.981z"/>
	<path d="M291.853,222.97h1.479v11.833h7.379v1.378h-8.858V222.97z"/>
	<path d="M302.022,222.97h1.479v11.833h7.378v1.378h-8.858V222.97z"/>
	<path d="M310.863,229.613v-0.038c0-3.642,2.715-6.832,6.705-6.832c3.989,0,6.667,3.152,6.667,6.794v0.038
		c0,3.643-2.716,6.832-6.705,6.832S310.863,233.255,310.863,229.613z M322.699,229.613v-0.038c0-3-2.172-5.454-5.169-5.454
		c-2.996,0-5.131,2.416-5.131,5.417v0.038c0,3.001,2.173,5.455,5.169,5.455C320.564,235.03,322.699,232.614,322.699,229.613z"/>
	<path d="M325.94,222.97h1.386l8.259,10.587V222.97h1.442v13.211h-1.18l-8.465-10.833v10.833h-1.442V222.97z"/>
	<path d="M338.676,229.745h5.206v1.528h-5.206V229.745z"/>
	<path d="M345.531,222.97h4.907c2.959,0,4.906,1.585,4.906,4.19v0.038c0,2.85-2.359,4.321-5.15,4.321h-3.184v4.662h-1.479V222.97z
		 M350.25,230.16c2.172,0,3.596-1.169,3.596-2.907v-0.038c0-1.887-1.404-2.869-3.521-2.869h-3.315v5.813H350.25z"/>
	<path d="M356.037,229.613v-0.038c0-3.642,2.715-6.832,6.705-6.832c3.989,0,6.667,3.152,6.667,6.794v0.038
		c0,3.643-2.715,6.832-6.704,6.832C358.715,236.407,356.037,233.255,356.037,229.613z M367.874,229.613v-0.038
		c0-3-2.173-5.454-5.169-5.454c-2.997,0-5.131,2.416-5.131,5.417v0.038c0,3.001,2.173,5.455,5.169,5.455
		C365.738,235.03,367.874,232.614,367.874,229.613z"/>
	<path d="M371.115,222.97h1.386l8.259,10.587V222.97h1.442v13.211h-1.181l-8.464-10.833v10.833h-1.442V222.97z"/>
	<path d="M387.952,224.347h-4.4v-1.377h10.3v1.377h-4.401v11.834h-1.498V224.347z"/>
	<path d="M399.396,222.97h4.55c4.12,0,6.967,2.85,6.967,6.568v0.038c0,3.718-2.847,6.606-6.967,6.606h-4.55V222.97z
		 M403.946,234.803c3.315,0,5.431-2.265,5.431-5.19v-0.038c0-2.925-2.116-5.228-5.431-5.228h-3.071v10.456H403.946z"/>
	<path d="M411.72,226.594c0.936-0.34,1.33-0.831,1.254-1.643h-0.674v-1.981h1.723v1.698c0,1.529-0.655,2.265-2.079,2.585
		L411.72,226.594z"/>
	<path d="M418.761,222.875h1.386l5.974,13.306h-1.592l-1.536-3.492h-7.135l-1.555,3.492h-1.517L418.761,222.875z M422.414,231.349
		l-2.978-6.737l-2.997,6.737H422.414z"/>
	<path d="M427.284,222.97h5.637c1.61,0,2.903,0.491,3.726,1.321c0.637,0.642,1.011,1.566,1.011,2.604v0.037
		c0,2.189-1.498,3.473-3.558,3.851l4.026,5.398h-1.816l-3.801-5.134h-3.746v5.134h-1.479V222.97z M432.79,229.708
		c1.966,0,3.371-1.019,3.371-2.718v-0.038c0-1.623-1.235-2.605-3.352-2.605h-4.045v5.36H432.79z"/>
	<path d="M438.821,229.613v-0.038c0-3.737,2.772-6.832,6.629-6.832c2.379,0,3.802,0.849,5.113,2.095l-1.011,1.095
		c-1.105-1.057-2.341-1.812-4.12-1.812c-2.902,0-5.075,2.378-5.075,5.417v0.038c0,3.058,2.191,5.455,5.075,5.455
		c1.798,0,2.978-0.699,4.232-1.906l0.974,0.962c-1.367,1.397-2.865,2.321-5.244,2.321
		C441.612,236.407,438.821,233.406,438.821,229.613z"/>
</g>
<path fill="none" stroke="#3FAFD5" stroke-miterlimit="10" d="M1198.564,256.058"/>
<path fill="#134C9A" d="M1277.069,332.1c0.01-0.155,0.028-0.302,0.024-0.47c-0.08-3.475-3.418-9.76-18.875-19.961
	c-25.334-16.732-50.991-26.828-51.226-26.916c-0.875-0.345-1.595-0.818-2.177-1.397c1.454-3.563,2.869-7.21,3.039-11.164
	c0.022-0.482,0.021-0.969,0.005-1.46c0.009-0.342,0.014-0.684,0.003-1.03c0.002-0.216,0.004-0.433-0.002-0.652
	c0.006-0.297,0.008-0.595-0.001-0.896c0.007-0.282,0.014-0.564,0.007-0.849c0-0.132,0-0.264-0.004-0.397
	c0.002-0.215,0.006-0.43,0-0.647c0.004-0.231,0.011-0.461,0.004-0.695c0-0.15-0.002-0.299-0.007-0.449
	c0.005-0.259,0.011-0.516,0.005-0.776c0.002-0.229,0.004-0.456-0.002-0.686c0.002-0.211,0.006-0.421,0-0.634
	c0.002-0.211,0.006-0.421,0.002-0.634c0.002-0.239,0.004-0.477-0.004-0.719c0.004-0.282,0.008-0.566,0-0.853
	c0.004-0.28,0.01-0.561,0.001-0.844c0.044-2.325-0.344-4.754-1.425-7.338c-4.241-10.115-11.648-13.615-20.863-9.856
	c-2.319,0.95-4.152,1.998-5.765,3.298c-4.187,3.374-6.733,12.473-8.419,18.495c-0.246,0.88-0.474,1.692-0.684,2.404
	c-0.428,1.445-0.832,2.901-1.237,4.36c-1.614,5.82-3.284,11.838-6.535,17.043c-6.688,10.714-19.338,16.843-31.476,15.253
	c-8.665-1.132-19.981-4.122-25.73-8.248c-6.611-4.735-13.202-6.111-19.594-4.083c-9.399,2.98-15.651,12.697-17.06,16.671
	l-0.294,0.842c-1.532,4.415-6.162,17.751-11.129,17.751c-0.057,0-0.112-0.001-0.169-0.004c-2.428-0.148-6.075-3.795-9.658-20.262
	c-1.071-12.227-8.667-19.38-20.837-19.626c-2.867-0.055-5.773,0.604-8.55,1.243c-5.668,1.304-11.021,2.536-15.572-2.735
	c-2.695-3.115-4.622-6.846-6.484-10.455c-2.798-5.421-5.691-11.026-11.252-14.722c-3.069-2.041-6.735-2.64-10.333-1.684
	c-3.946,1.049-7.43,3.906-9.319,7.642c-1.111,2.195-1.522,4.422-1.431,6.608c-0.006,0.292-0.013,0.583,0,0.875
	c-0.006,0.293-0.013,0.586,0,0.877c-0.005,0.268-0.015,0.535-0.005,0.801c-0.001,0.212-0.008,0.423,0.001,0.635
	c-0.002,0.219-0.01,0.439-0.001,0.657c-0.002,0.218-0.008,0.436,0.001,0.653c-0.002,0.233-0.005,0.468,0.004,0.702
	c-0.004,0.235-0.021,0.472-0.014,0.707c0.001,0.148,0.005,0.295,0.011,0.442c-0.004,0.25-0.013,0.5-0.002,0.75
	c-0.002,0.189-0.013,0.378-0.006,0.566c0.002,0.161,0.007,0.322,0.015,0.482c-0.009,0.32-0.018,0.641-0.002,0.96
	c-0.006,0.259-0.018,0.519-0.007,0.779c-0.003,0.271-0.003,0.541,0.011,0.811c-0.009,0.26-0.029,0.521-0.023,0.78
	c0.127,6.339,4.639,12.342,9.407,16.165c0.145,0.116,0.271,0.236,0.406,0.354c-2.542,3.099-5.904,5.31-5.994,5.371
	c-0.085,0.072-8.634,7.298-24.379,11.828c-17.523,5.045-25.909,31.92-26.257,33.061c-0.99,3.23-2.933,5.438-5.773,6.56
	c-6.231,2.462-16.267-0.295-29.801-8.175c-3.714-2.494-7.466-3.17-11.145-2.009c-9.748,3.073-15.629,17.816-15.88,18.457
	c-0.023,0.067-2.452,6.688-6.292,6.889c-2.598,0.149-5.578-2.943-8.454-8.919c-5.792-12.037-9.711-14.832-16.2-19.463
	c-0.939-0.669-1.934-1.379-3.003-2.165c-10.869-7.988-17.088-8.924-21.203-9.542c-3.109-0.468-4.988-0.75-7.013-3.737
	c-0.699-1.032-1.204-2.247-1.553-3.587c1.41-8.068,4.985-16.108,7.6-18.246c8.362-6.822,10.444-13.562,10.353-19.563
	c-0.001-0.076-0.004-0.151-0.006-0.227c0.009-0.338,0.01-0.673,0.003-1.007c0.003-0.226,0.004-0.451-0.001-0.674
	c0.006-0.291,0.006-0.579,0-0.866c0.007-0.308,0.008-0.614,0.003-0.918c0-0.117,0.001-0.234-0.002-0.351
	c0.003-0.222,0.004-0.444,0-0.665c0.004-0.243,0.006-0.487,0.002-0.728c0-0.123,0-0.246-0.003-0.368
	c0.006-0.285,0.006-0.569,0-0.851c0.003-0.207,0.005-0.414,0.001-0.619c0.003-0.225,0.005-0.449,0-0.671
	c0.003-0.22,0.004-0.438,0-0.656c0.003-0.221,0.004-0.442-0.001-0.661c0.006-0.294,0.006-0.587,0-0.878
	c0.006-0.285,0.006-0.57,0-0.852c0.067-3.894-0.831-7.496-1.615-10.631c-0.187-0.739-0.366-1.459-0.528-2.157
	c-4.145-17.831-12.982-19.254-19.436-20.295l-1.04-0.17c-7.167-1.213-14.188,1.629-20.979,4.378
	c-7.233,2.926-14.063,5.689-20.024,2.958c-4.984-2.284-12.51-3.161-17.255,0.314c-2.28,1.668-5.516,6.536-5.292,12.202
	c-0.006,0.285-0.01,0.571,0,0.861c-0.006,0.287-0.01,0.573,0,0.865c-0.005,0.271-0.012,0.541-0.003,0.816
	c-0.002,0.218-0.007,0.434,0,0.654c-0.002,0.21-0.008,0.42-0.001,0.634c-0.002,0.221-0.008,0.442,0,0.666
	c-0.002,0.231-0.005,0.462,0.004,0.697c-0.005,0.251-0.015,0.502-0.007,0.757c0.001,0.13,0.001,0.26,0.007,0.392
	c-0.005,0.245-0.012,0.49-0.004,0.738c-0.002,0.203-0.009,0.404-0.003,0.609c0.001,0.145,0.002,0.288,0.009,0.434
	c-0.01,0.322-0.014,0.646-0.002,0.973c-0.005,0.266-0.012,0.53-0.003,0.8c-0.003,0.246-0.004,0.492,0.007,0.741
	c-0.011,0.297-0.022,0.594-0.014,0.896c0.028,1.312,0.238,2.666,0.69,4.036c1.321,3.998,3.935,8.152,6.704,12.549
	c3.53,5.609,7.181,11.409,8.02,16.94c0.059,0.391,0.103,0.776,0.151,1.163c-0.818,5.518-2.856,10.089-5.991,13.063
	c-3.293,3.124-7.522,4.234-12.236,3.21c-4.369-0.949-7.854-1.899-10.504-2.858c4.383-3.553,9.164-7.557,9.244-12.764
	c0.006-0.253-0.011-0.512-0.027-0.77c0.017-0.259,0.02-0.52,0.013-0.785c0.012-0.262,0.006-0.529-0.006-0.797
	c0.017-0.306,0.014-0.616-0.003-0.93c0.011-0.177,0.017-0.354,0.017-0.535c0.007-0.181-0.003-0.367-0.008-0.551
	c0.011-0.241,0.005-0.486-0.003-0.731c0.007-0.151,0.012-0.302,0.012-0.456c0.008-0.227-0.005-0.459-0.015-0.691
	c0.013-0.236,0.012-0.475,0.006-0.716c0.01-0.213,0.006-0.431,0-0.648c0.01-0.215,0.006-0.434,0-0.652
	c0.009-0.213,0.006-0.429,0-0.646c0.012-0.263,0.006-0.53-0.006-0.798c0.015-0.286,0.013-0.576,0-0.869
	c0.015-0.284,0.013-0.574,0-0.865c0.024-0.443,0.027-0.892-0.02-1.353c-0.703-7-4.141-12.256-10.214-15.625
	c-16.475-9.139-48.013-1.526-53.866,1.421c-13.281,6.701-24.286,8.054-34.231,8.52c-5.222,0.569-7.154,4.371-9.199,8.396
	c-2.979,5.865-6.357,12.513-20.57,12.743c-1.981,0.032-3.676-0.034-5.134-0.171c5.949-2.694,13.845-7.31,15.52-16.223
	c0.257-1.366,0.354-2.787,0.292-4.262c-0.003-0.072-0.007-0.145-0.011-0.216c0.002-0.341,0.021-0.678,0.005-1.025
	c-0.003-0.226,0.008-0.447-0.003-0.676c-0.001-0.294,0.014-0.583-0.001-0.882c0-0.298,0.02-0.588,0.007-0.891
	c-0.003-0.123,0.002-0.242-0.003-0.366c-0.003-0.223,0.009-0.441-0.001-0.667c-0.002-0.238,0.015-0.469,0.005-0.71
	c-0.003-0.129,0-0.256-0.006-0.386c-0.001-0.278,0.016-0.55,0.003-0.832c-0.003-0.22,0.01-0.434,0-0.656
	c-0.003-0.218,0.01-0.43,0-0.65c-0.003-0.216,0.009-0.426,0-0.645c-0.003-0.229,0.008-0.451-0.003-0.681
	c-0.001-0.288,0.014-0.57,0-0.861c-0.001-0.291,0.014-0.575,0-0.869c-0.039-10.42-8.196-23.61-24.363-39.303
	c-3.424-3.322-7.157-4.324-10.8-2.894c-8.102,3.182-13.421,17.024-14.122,28.567c-0.235,3.87-0.007,7.706-0.007,11.463
	c0,0.288,0,0.577,0,0.865c0,0.29,0,0.58,0,0.868c0,0.264,0,0.529,0,0.792c0,0.216,0,0.432,0,0.648c0,0.217,0,0.434,0,0.65
	c0,0.216,0,0.433,0,0.649c0,0.24,0,0.48,0,0.72c0,0.226,0,0.454,0,0.679c0,0.157,0,0.313,0,0.469c0,0.243,0,0.485,0,0.727
	c0,0.181,0,0.363,0,0.542c0,0.183,0,0.366,0,0.548c0,0.31,0,0.621,0,0.93c0,0.264,0,0.528,0,0.792c0,0.266,0,0.532,0,0.797
	c0,0.247-0.25,0.498-0.249,0.746c0,0.123-0.122,0.244-0.122,0.366c-0.27,12.443-2.258,22.5-13.395,26.04
	c-11.796,3.746-17.004-5.793-22.487-15.893c-2.158-3.975-4.404-8.085-7.053-11.211c-4.048-4.774-8.956-6.254-12.182-6.048
	c-1.526,0.097-2.688,0.585-3.18,1.341c-13,20.054-22.455,23.673-26.933,24.045c-2.353,0.194-3.858-0.466-4.482-1.15
	c-0.294-0.322-0.875-2.504-1.438-4.616c-2.814-10.556-9.398-35.275-27.5-30.51c-23.541,6.196-24.642,5.273-29.924,0.834
	c-2.124-1.784-5.031-4.226-10.277-6.963c-34.37-17.927-46.224-4.801-55.75,5.747c-4.392,4.863-8.184,9.062-13.433,9.123
	c-20.72,0.255-30.327-7.277-38.043-13.322c-6.031-4.724-11.238-8.801-19.829-8.167c-52.556,3.894-68.114,16.755-84.586,30.371
	c-7.77,6.423-15.805,13.065-28.114,18.724c-30.141,13.855-60.489,15.56-74.886,10.085c-15.107-5.749-32.475-22.546-38.715-37.443
	c-0.402-0.959-0.728-1.882-1.02-2.788c6.606-15.473,8.876-26.251,8.82-33.741c-0.001-0.151-0.008-0.293-0.01-0.442
	c0.003-0.315,0.008-0.631,0.004-0.935c0.001-0.244,0.001-0.487-0.002-0.724c0.002-0.303,0.003-0.604-0.001-0.897
	c0.002-0.248,0.009-0.501,0.007-0.742c0-0.149-0.001-0.295-0.003-0.442c0.001-0.235,0.002-0.468-0.001-0.696
	c0.001-0.203,0.006-0.411,0.004-0.608c0-0.171-0.003-0.338-0.005-0.505c0.002-0.267,0.006-0.535,0.002-0.794
	c0.001-0.219,0.003-0.44,0-0.653c0.001-0.218,0.003-0.436,0-0.648c0.001-0.214,0.003-0.43,0-0.639
	c0.001-0.249,0.001-0.495-0.002-0.735c0.002-0.29,0.004-0.577,0-0.857c0.002-0.294,0.005-0.587,0-0.871
	c0.085-10.189-4.011-14.528-7.522-16.362c-10.515-5.497-29.157,3.813-35.928,15.04c-0.683,1.134-0.973,2.414-0.881,3.795
	c-0.016,0.286-0.02,0.575,0,0.872c-0.015,0.283-0.02,0.57,0,0.863c-0.016,0.28-0.021,0.563-0.002,0.853
	c-0.005,0.211-0.014,0.42,0,0.637c-0.005,0.216-0.014,0.431,0,0.653c-0.005,0.215-0.014,0.43,0,0.651
	c-0.005,0.221-0.012,0.443,0.003,0.67c-0.015,0.266-0.023,0.533-0.007,0.808c0.001,0.122-0.003,0.243,0.005,0.366
	c-0.01,0.247-0.018,0.495-0.001,0.748c-0.005,0.207-0.017,0.411-0.004,0.622c0.002,0.131,0,0.261,0.008,0.394
	c-0.021,0.313-0.023,0.63-0.001,0.955c-0.015,0.278-0.021,0.558-0.003,0.845c-0.005,0.229-0.011,0.459,0.005,0.695
	c-0.027,0.32-0.031,0.647-0.013,0.981c0.06,1.366,0.497,2.837,1.32,4.374c2.054,3.837,6.201,7.099,8.029,7.165L12.26,258
	c-0.001,0-0.004,0-0.005,0l0.003-0.048c-0.012-0.001-0.029,0.048-0.042,0.048c0.003,0,0.006,0,0.009,0l0.033-0.898
	c-0.006,0-0.014,0.087-0.02,0.086l0.021-0.602c-0.008,0-0.019,0.14-0.027,0.139L12.259,256c-0.01,0-0.021,0-0.031,0l0.031-1
	c-0.003,0-0.008,0-0.012,0l0.01-0.435c-0.006,0-0.014-0.051-0.02-0.052l0.02-0.667c-0.007,0-0.017-0.015-0.023-0.016l0.023-0.77
	c-0.002,0-0.007-0.004-0.01-0.004l0.01-0.314c-0.008,0-0.019-0.004-0.026-0.005l0.026-0.864c-0.006,0-0.014-0.003-0.02-0.004
	l0.021-0.643c-0.006,0-0.015-0.003-0.021-0.003l0.021-0.646c-0.006,0-0.015-0.003-0.021-0.003l0.021-0.651
	c-0.006,0-0.015-0.003-0.021-0.004l0.019-0.647c-0.008,0-0.018-0.003-0.025-0.003l0.026-0.86c-0.008,0-0.019-0.003-0.026-0.004
	l0.026-0.864c-0.009,0-0.02-0.003-0.027-0.004l0.029-0.855c-0.969-0.035-3.623-1.912-5.708-4.646
	c7.617-9.59,23.431-16.79,32.65-11.971c2.528,1.321,5.366,4.043,6.491,9.635c-0.988,6.875-3.56,15.822-8.607,27.5
	c-0.654,1.514-0.939,3.274-0.898,5.221c-0.009,0.283-0.006,0.573,0,0.865c-0.009,0.283-0.006,0.574,0,0.866
	c-0.008,0.24-0.009,0.483-0.005,0.729c-0.006,0.214-0.003,0.433,0,0.65c-0.006,0.213-0.003,0.431,0,0.648
	c-0.006,0.213-0.003,0.431,0,0.649c-0.007,0.257,0,0.521,0.005,0.785c-0.005,0.173-0.014,0.344-0.014,0.521
	c-0.004,0.195,0.008,0.399,0.012,0.599c-0.007,0.229-0.006,0.461-0.003,0.696c-0.004,0.151-0.008,0.301-0.008,0.455
	c-0.005,0.235,0.01,0.481,0.016,0.724c-0.011,0.295-0.009,0.596-0.002,0.901c-0.008,0.24-0.009,0.484-0.005,0.731
	c-0.008,0.3,0.002,0.61,0.011,0.92c-0.006,0.16-0.024,0.312-0.026,0.474c-0.039,2.904,0.721,6.273,2.271,9.974
	c6.34,15.133,23.98,32.191,39.32,38.026c14.601,5.558,45.295,3.869,75.708-10.109c12.437-5.716,20.527-12.404,28.351-18.872
	c16.337-13.505,31.769-26.261,83.984-30.13c8.184-0.604,13.238,3.355,19.095,7.942c7.849,6.148,17.621,13.807,38.712,13.546
	c5.713-0.066,9.651-4.426,14.21-9.475c9.277-10.274,20.825-23.062,54.467-5.511c5.141,2.682,7.881,4.982,10.082,6.831
	c5.631,4.729,6.803,5.713,30.881-0.625c17.074-4.495,23.464,19.503,26.196,29.75c0.841,3.157,1.232,4.573,1.685,5.067
	c1.03,1.129,3.032,1.687,5.357,1.495c4.673-0.388,14.489-4.089,27.735-24.518c0.222-0.341,0.971-0.771,2.351-0.86
	c2.828-0.189,7.495,1.192,11.291,5.669c2.577,3.041,4.781,7.101,6.914,11.028c5.449,10.036,11.085,20.415,23.715,16.404
	c12.998-4.133,14.307-16.339,14.313-30.986c0-0.254,0.191-0.511,0.191-0.767c0-0.261,0-0.524,0-0.788c0-0.265,0-0.53,0-0.796
	c0-0.309,0-0.621,0-0.933c0-0.179,0-0.356,0-0.536c0-0.182,0-0.365,0-0.548c0-0.242,0-0.486,0-0.73c0-0.153,0-0.307,0-0.46
	c0-0.229,0-0.459,0-0.689c0-0.238,0-0.477,0-0.717c0-0.215,0-0.432,0-0.649c0-0.215,0-0.432,0-0.65c0-0.214,0-0.431,0-0.647
	c0-0.265,0-0.531,0-0.797c0-0.288,0-0.578,0-0.868c0-0.287,0-0.576,0-0.865c0-0.602-0.192-1.207-0.194-1.817
	c0.034-1.994-0.004-3.998,0.118-6.012c0.763-12.569,6.857-24.965,13.644-27.631c3.269-1.284,6.498-0.388,9.644,2.664
	c12.888,12.508,20.594,23.342,23.115,32.372c-2.943,8.41-12.22,12.298-17.406,14.46c-1.443,0.601-2.489,1.037-3.079,1.433
	c-1.805,1.209-3.308,3.43-3.08,5.593c-0.028,0.29-0.032,0.579-0.001,0.869c-0.028,0.287-0.03,0.575,0,0.863
	c-0.027,0.278-0.033,0.555-0.007,0.833c-0.013,0.217-0.021,0.434,0,0.651c-0.013,0.216-0.021,0.433,0,0.649
	c-0.012,0.217-0.02,0.432,0,0.648c-0.013,0.228-0.018,0.456,0.006,0.684c-0.025,0.258-0.038,0.517-0.017,0.774
	c0,0.129,0,0.258,0.014,0.389c-0.021,0.25-0.028,0.501-0.004,0.753c-0.012,0.199-0.026,0.396-0.01,0.595
	c0.001,0.146,0.003,0.29,0.019,0.436c-0.036,0.315-0.035,0.632-0.002,0.948c-0.027,0.276-0.033,0.553-0.007,0.829
	c-0.014,0.24-0.014,0.479,0.013,0.718c-0.042,0.308-0.052,0.617-0.029,0.925c0.017,0.329,0.065,0.658,0.166,0.983
	c0.714,2.314,3.854,5.023,14.739,4.863c14.855-0.236,18.542-7.494,21.505-13.325c1.993-3.922,3.714-7.31,8.328-7.814
	c10.016-0.465,21.143-1.832,34.628-8.625c5.753-2.897,36.726-10.396,52.872-1.442c3.808,2.112,6.493,5.025,8.086,8.666
	c-1.79,2.758-4.789,5.192-7.565,7.441c-3.583,2.902-6.684,5.422-6.324,8.056c-0.038,0.288-0.038,0.576,0,0.866
	c-0.038,0.288-0.038,0.577,0.002,0.866c-0.035,0.249-0.042,0.498-0.018,0.747c-0.024,0.216-0.021,0.433,0,0.649
	c-0.024,0.217-0.021,0.434,0,0.651c-0.024,0.215-0.021,0.431,0,0.647c-0.029,0.256-0.018,0.513,0.018,0.77
	c-0.031,0.224-0.046,0.448-0.028,0.673c-0.004,0.15,0.002,0.3,0.02,0.45c-0.028,0.234-0.031,0.468-0.009,0.703
	c-0.021,0.193-0.024,0.386-0.011,0.581c-0.006,0.19,0.007,0.382,0.036,0.574c-0.047,0.303-0.05,0.607-0.008,0.913
	c-0.034,0.249-0.042,0.497-0.018,0.747c-0.032,0.293-0.017,0.587,0.035,0.883c-0.043,0.25-0.066,0.5-0.05,0.75
	c0.007,0.201,0.026,0.402,0.074,0.605c0.704,2.989,6.12,5.43,17.563,7.916c5.069,1.1,9.634-0.102,13.194-3.479
	c4.226-4.01,6.574-10.713,6.73-18.711c0.007-0.347-0.001-0.702-0.001-1.053c0.004-0.219-0.001-0.444,0-0.666
	c0.006-0.283-0.001-0.573,0-0.859c0.007-0.315,0-0.639,0-0.958c0.002-0.116-0.001-0.236,0.001-0.353
	c0.004-0.212-0.002-0.431-0.001-0.645c0.006-0.25-0.001-0.506,0-0.758c0.002-0.107-0.001-0.216,0.001-0.323
	c0.006-0.286-0.001-0.581-0.001-0.869c0.005-0.212-0.001-0.43,0-0.643c0.005-0.213-0.001-0.432,0-0.646
	c0.005-0.217-0.001-0.44,0-0.659c0.005-0.211-0.001-0.429,0-0.642c0.006-0.284-0.001-0.574,0-0.86c0.006-0.286-0.001-0.58,0-0.869
	c0.006-0.285-0.001-0.577,0-0.865c0.058-2.661-0.126-5.465-0.566-8.364c-0.87-5.756-4.584-11.654-8.175-17.357
	c-2.305-3.661-4.492-7.147-5.891-10.473c1.012-2.267,2.413-4.014,3.526-4.829c4.199-3.077,11.319-2.435,16.185-0.209
	c6.37,2.923,13.41,0.079,20.862-2.935c6.654-2.691,13.534-5.479,20.404-4.31l1.043,0.17c6.155,0.988,14.586,2.341,18.569,19.473
	c0.163,0.704,0.345,1.428,0.53,2.173c0.3,1.191,0.608,2.428,0.874,3.702c-1.153,4.102-3.836,8.406-9.24,12.815
	c-3.561,2.911-8.665,15.532-8.606,25.68c-0.007,0.321-0.005,0.639-0.002,0.956c-0.005,0.276-0.111,0.547-0.107,0.821
	c-0.012,0.462-0.108,0.92-0.108,1.374c0,0.002,0,0.005,0,0.007c0,0.18,0.11,0.355,0.11,0.533c-0.006,0.256,0.05,0.507,0.052,0.76
	c-0.006,0.263,0.029,0.521,0.031,0.782c-0.003,0.122,0.009,0.243,0.008,0.365c-0.004,0.233-0.102,0.462-0.101,0.694
	c-0.011,0.481-0.101,0.958-0.101,1.429c0,0.161,0,0.321,0,0.481c0,0.338,0.103,0.67,0.106,1.002
	c-0.004,0.176,0.056,0.348,0.056,0.521c-0.008,0.404,0.02,0.804,0.026,1.201c-0.01,0.454,0.006,0.903,0.017,1.348
	c0.079,3.437,0.778,6.561,2.355,8.889c2.288,3.378,4.578,3.723,7.743,4.2c4.011,0.604,10.073,1.517,20.729,9.348
	c1.072,0.788,2.073,1.501,3.015,2.174c6.568,4.686,10.187,7.267,15.858,19.054c3.046,6.328,6.154,9.532,9.239,9.532
	c0.077,0,0.155-0.002,0.233-0.005c4.539-0.237,7.133-7.294,7.235-7.58c0.058-0.149,5.941-14.895,15.201-17.813
	c3.354-1.057,6.799-0.426,10.26,1.898c13.856,8.067,24.201,10.847,30.749,8.26c3.161-1.248,5.318-3.687,6.41-7.248
	c0.083-0.274,8.548-27.449,25.529-32.342c15.984-4.603,24.838-11.974,24.865-12.005c0.363-0.235,9.371-5.839,9.371-12.27
	c0-0.028,0-0.057,0-0.085c0-0.004,0-0.007,0-0.01c0-0.325-0.133-0.645-0.158-0.961c0.002-0.04-0.06-0.078-0.058-0.118
	c0.011-0.197-0.04-0.39-0.045-0.584c0.001-0.023-0.011-0.045-0.01-0.068c0.012-0.261-0.006-0.518-0.02-0.773
	c0.002-0.03,0.007-0.06,0.007-0.09c0.014-0.29,0.004-0.575-0.016-0.859c0.003-0.034,0.009-0.068,0.011-0.103
	c0.006-0.102-0.004-0.201-0.003-0.302c0-0.012,0.002-0.023,0.003-0.035c0.009-0.195-0.003-0.386-0.009-0.578
	c0.002-0.023,0.008-0.046,0.009-0.069c0.011-0.233,0-0.463-0.011-0.692c0.002-0.027,0.01-0.054,0.011-0.082
	c0.004-0.093-0.005-0.183-0.004-0.274c0-0.012,0.003-0.022,0.004-0.033c0.013-0.262,0.003-0.52-0.012-0.776
	c0.002-0.031,0.01-0.061,0.012-0.091c0.009-0.197-0.003-0.389-0.009-0.582c0.002-0.023,0.008-0.045,0.009-0.068
	c0.009-0.197-0.003-0.39-0.009-0.583c0.002-0.023,0.008-0.046,0.009-0.069c0.009-0.194-0.003-0.384-0.009-0.575
	c0.002-0.023,0.008-0.045,0.009-0.069c0.01-0.197-0.003-0.391-0.009-0.585c0.002-0.023,0.008-0.046,0.009-0.069
	c0.012-0.261,0.003-0.518-0.012-0.774c0.002-0.031,0.011-0.06,0.012-0.09c0.013-0.262,0.003-0.52-0.012-0.776
	c0.002-0.03,0.011-0.06,0.012-0.091c0.012-0.259,0.002-0.514-0.012-0.768c0.002-0.031,0.01-0.062,0.012-0.093
	c0.13-2.584-1.085-4.92-3.609-6.946c-3.024-2.426-5.945-5.76-7.604-9.474c1.768-3.407,4.958-6.01,8.571-6.97
	c3.299-0.876,6.662-0.329,9.472,1.542c5.329,3.543,8.031,8.78,10.894,14.324c1.892,3.665,3.847,7.455,6.625,10.668
	c4.969,5.75,10.886,4.386,16.608,3.069c2.718-0.625,5.519-1.288,8.3-1.216c11.73,0.242,18.76,6.862,19.804,18.711
	c3.04,13.997,6.524,20.923,10.646,21.175c5.82,0.337,10.581-13.306,12.369-18.449l0.295-0.846
	c1.354-3.818,7.356-13.151,16.377-16.011c6.058-1.919,12.327-0.594,18.649,3.935c6.757,4.846,19.657,7.583,26.213,8.435
	c12.554,1.647,25.617-4.683,32.517-15.744c3.335-5.341,5.027-11.436,6.662-17.33c0.403-1.452,0.807-2.901,1.232-4.34
	c0.211-0.716,0.438-1.531,0.687-2.415c1.647-5.893,4.14-14.798,8.059-17.95c1.528-1.235,3.275-2.235,5.499-3.145
	c11.008-4.486,16.666,2.574,19.475,9.286c0.13,0.308,0.24,0.611,0.349,0.914c-0.567,1.881-1.333,3.847-2.213,5.995
	c-0.707,1.723-1.645,4.566-1.544,7.315c-0.013,0.293-0.014,0.587-0.002,0.881c-0.012,0.294-0.012,0.589,0,0.884
	c-0.009,0.242-0.01,0.485-0.004,0.727c-0.006,0.218-0.006,0.438,0,0.655c-0.006,0.219-0.006,0.438,0,0.657
	c-0.006,0.215-0.006,0.429,0,0.644c-0.007,0.257-0.006,0.512,0.004,0.768c-0.007,0.188-0.011,0.375-0.009,0.563
	c-0.003,0.188,0.001,0.376,0.007,0.564c-0.008,0.236-0.008,0.473-0.002,0.709c-0.004,0.16-0.006,0.32-0.004,0.479
	c-0.003,0.219,0,0.438,0.01,0.656c-0.013,0.309-0.014,0.617-0.002,0.925c-0.01,0.252-0.01,0.503-0.004,0.755
	c-0.007,0.29-0.007,0.58,0.008,0.869c-0.009,0.187-0.016,0.374-0.016,0.561c-0.009,1.197,0.165,2.389,0.624,3.478
	c0.722,1.706,2.05,2.95,3.957,3.701c0.243,0.092,25.888,10.214,51.022,26.808c11.46,7.568,15.923,12.79,17.543,16.093
	c-0.044,0.042-0.079,0.073-0.086,0.078l0.312,0.431c-0.161,0.212-0.297,0.321-0.312,0.332l0.271,0.373
	c-0.143,0.176-0.257,0.272-0.271,0.282l0.143,0.197c-0.075,0.079-0.133,0.127-0.143,0.133l0.384,0.529
	c-0.192,0.28-0.367,0.423-0.384,0.436l0.35,0.483c-0.179,0.248-0.334,0.373-0.35,0.385l0.266,0.369
	c-0.14,0.172-0.252,0.267-0.266,0.277l0.428,0.589c-0.211,0.323-0.409,0.487-0.428,0.501l0.042,0.058
	c-0.019,0.017-0.038,0.032-0.042,0.035l0.631,0.87c0.058-0.042,1.425-1.065,1.373-3.381c0-0.015-0.002-0.031-0.002-0.046
	c0-0.017,0.002-0.03,0.002-0.046c-0.003-0.151-0.016-0.309-0.032-0.47c0.019-0.198,0.037-0.396,0.032-0.618
	c-0.002-0.106-0.008-0.213-0.018-0.325c0.005-0.109,0.02-0.208,0.018-0.323c-0.003-0.128-0.012-0.262-0.024-0.398
	c0.01-0.154,0.028-0.301,0.024-0.469c-0.003-0.138-0.014-0.282-0.028-0.429c0.015-0.173,0.032-0.342,0.028-0.533
	c-0.001-0.055-0.006-0.112-0.008-0.168c0-0.059,0.009-0.108,0.008-0.168c-0.002-0.105-0.008-0.214-0.018-0.324
	c0.005-0.111,0.02-0.21,0.018-0.327c-0.002-0.118-0.011-0.24-0.021-0.365c0.008-0.133,0.024-0.256,0.021-0.398
	c-0.001-0.052-0.006-0.106-0.008-0.158c0-0.055,0.009-0.102,0.008-0.158c-0.003-0.128-0.012-0.263-0.024-0.399
	c0.01-0.154,0.028-0.301,0.024-0.469c-0.002-0.105-0.008-0.213-0.018-0.324c0.005-0.108,0.02-0.207,0.018-0.322
	c-0.002-0.105-0.008-0.214-0.018-0.324c0.005-0.109,0.02-0.208,0.018-0.323c-0.002-0.106-0.008-0.215-0.018-0.326
	c0.005-0.111,0.02-0.209,0.018-0.326c-0.002-0.106-0.008-0.214-0.018-0.325c0.005-0.109,0.02-0.208,0.018-0.324
	c-0.003-0.128-0.013-0.262-0.024-0.398c0.01-0.155,0.028-0.303,0.024-0.471c-0.003-0.127-0.012-0.261-0.024-0.396
	c0.01-0.153,0.028-0.299,0.024-0.465C1277.091,332.37,1277.081,332.236,1277.069,332.1z M23.354,229.064
	c4.159-1.49,8.356-2.101,12.006-1.453C31.682,227.022,27.5,227.626,23.354,229.064z M119.919,331.167
	c-13.218,2.572-25.134,2.851-34.059,1.365C94.841,333.988,106.743,333.703,119.919,331.167z M265.803,271.34
	c1.043-0.077,2.034-0.079,2.983-0.015c-0.974-0.059-1.991-0.053-3.062,0.026c-4.889,0.362-9.456,0.803-13.734,1.313
	C256.29,272.149,260.883,271.706,265.803,271.34z M323.61,292.837c0.329-0.004,0.651-0.026,0.969-0.058
	c-0.321,0.036-0.648,0.058-0.981,0.062c-0.783,0.009-1.544,0.004-2.294-0.008C322.058,292.844,322.824,292.847,323.61,292.837z
	 M464.485,320.332c0.63,0.075,1.302,0.093,2.01,0.035c0.121-0.01,0.248-0.024,0.375-0.039c-0.164,0.021-0.322,0.038-0.474,0.05
	C465.676,320.437,465.045,320.409,464.485,320.332z M496.572,294.984c0.362-0.025,0.756-0.021,1.174,0.009
	c-0.423-0.026-0.826-0.028-1.207-0.005C496.551,294.987,496.56,294.984,496.572,294.984z M535.095,328.851
	c-1.362,0.182-2.626,0.166-3.807-0.024C532.475,329.003,533.739,329.021,535.095,328.851z M571.12,249.857
	c-1.127-0.235-2.262-0.252-3.395-0.029C568.862,249.569,569.994,249.59,571.12,249.857z M593.172,324.025
	c-0.04,0.002-0.081,0.004-0.12,0.007C593.091,324.03,593.132,324.028,593.172,324.025z M591.936,324.102
	c-0.16,0.008-0.328,0.01-0.491,0.015C591.608,324.111,591.775,324.109,591.936,324.102z M620.475,302.999
	c1.229-0.057,2.475-0.127,3.739-0.219c-1.277,0.094-2.534,0.167-3.774,0.225C620.451,303.003,620.462,303,620.475,302.999z
	 M699.543,289.871c-10.662-2.269-23.667-0.856-33.104,1.126C675.828,288.992,688.923,287.531,699.543,289.871z M723.469,337.476
	c-0.572,0.006-1.152-0.022-1.741-0.086C722.314,337.449,722.896,337.48,723.469,337.476z M725.079,337.365
	c-0.034,0.004-0.07,0.003-0.105,0.007C725.009,337.368,725.045,337.369,725.079,337.365z M750.087,263.201
	c-0.089-0.004-0.179,0-0.267-0.006C749.909,263.201,749.998,263.197,750.087,263.201z M784.798,254.576
	c-1.15-0.11-2.296-0.119-3.438-0.052C782.505,254.454,783.651,254.46,784.798,254.576z M847.994,384.226
	c-0.076-0.004-0.151-0.006-0.227-0.015C847.842,384.218,847.918,384.223,847.994,384.226z M848.34,384.231
	c-0.005,0-0.01,0.002-0.017,0.002c-0.015,0.001-0.03-0.001-0.044-0.001C848.299,384.232,848.32,384.232,848.34,384.231z
	 M873.783,358.357c-0.149,0.002-0.299-0.007-0.449,0.001C873.484,358.349,873.634,358.359,873.783,358.357z M907.73,369.881
	c-1.751,0.138-3.708-0.008-5.854-0.423C904.006,369.856,905.966,370.008,907.73,369.881z M908.977,369.736
	c-0.287,0.048-0.59,0.075-0.89,0.105C908.389,369.813,908.686,369.78,908.977,369.736z M978.795,269.574
	c-0.423-0.022-0.847-0.022-1.271-0.001C977.948,269.549,978.372,269.55,978.795,269.574z M1013.223,300.603
	c-1.051,0.123-2.085,0.163-3.099,0.082C1011.146,300.759,1012.183,300.717,1013.223,300.603z M1009.295,300.59
	c-0.015-0.002-0.03-0.003-0.045-0.005C1009.265,300.587,1009.279,300.588,1009.295,300.59z M1026.968,298.35
	c1.503,0.031,2.926,0.17,4.272,0.408c-1.348-0.233-2.764-0.37-4.251-0.399c-0.718-0.016-1.432,0.013-2.141,0.073
	C1025.556,298.367,1026.262,298.335,1026.968,298.35z M1033.072,299.154c-0.066-0.017-0.138-0.028-0.204-0.045
	C1032.935,299.125,1033.006,299.136,1033.072,299.154z M1057.393,338.234c-0.124-0.013-0.252-0.031-0.382-0.063
	C1057.138,338.193,1057.264,338.226,1057.393,338.234z M1057.643,338.246c0.148,0,0.296-0.015,0.441-0.032
	c-0.144,0.022-0.287,0.036-0.432,0.036c-0.056,0-0.111-0.002-0.168-0.005c-0.015-0.001-0.029-0.004-0.044-0.005
	C1057.508,338.242,1057.576,338.246,1057.643,338.246z M1092.078,302.081c-0.359-0.003-0.719,0.002-1.077,0.02
	C1091.359,302.082,1091.719,302.077,1092.078,302.081z M1092.355,302.087c-0.057-0.001-0.114-0.007-0.17-0.008
	C1092.241,302.08,1092.299,302.085,1092.355,302.087z M1126.387,314.491c-0.025-0.005-0.05-0.01-0.075-0.015
	C1126.337,314.48,1126.361,314.485,1126.387,314.491z M1140.6,315.104c-3.009,0.524-6.09,0.613-9.141,0.213
	c-0.004-0.001-0.009-0.001-0.013-0.002C1134.501,315.7,1137.584,315.614,1140.6,315.104z M1196.056,253.519
	c-2.037-0.596-4.25-0.673-6.612-0.218C1191.966,252.771,1194.156,252.908,1196.056,253.519z"/>
<g>
	<polyline fill="none" stroke="#FFFFFF" stroke-miterlimit="10" points="820.58,344.549 824.257,351.454 816.437,351.291 	"/>
	<polyline fill="none" stroke="#FFFFFF" stroke-miterlimit="10" points="823.566,346.415 827.244,353.324 819.428,353.156 	"/>
	<polyline fill="none" stroke="#FFFFFF" stroke-miterlimit="10" points="826.554,348.285 830.235,355.194 822.41,355.021 	"/>
</g>
<g>
	<polyline fill="none" stroke="#FFFFFF" stroke-miterlimit="10" points="687.333,279.444 693.661,284.001 686.567,287.334 	"/>
	<polyline fill="none" stroke="#FFFFFF" stroke-miterlimit="10" points="690.832,279.779 697.159,284.341 690.071,287.67 	"/>
	<polyline fill="none" stroke="#FFFFFF" stroke-miterlimit="10" points="694.331,280.123 700.659,284.685 693.566,288.018 	"/>
</g>
<g>
	<polyline fill="none" stroke="#FFFFFF" stroke-miterlimit="10" points="858.001,359.075 865.455,356.841 863.713,364.535 	"/>
	<polyline fill="none" stroke="#FFFFFF" stroke-miterlimit="10" points="860.417,356.505 867.877,354.271 866.13,361.957 	"/>
	<polyline fill="none" stroke="#FFFFFF" stroke-miterlimit="10" points="862.834,353.94 870.294,351.697 868.546,359.386 	"/>
</g>
<g>
	<polyline fill="none" stroke="#FFFFFF" stroke-miterlimit="10" points="952.158,317.365 959.929,316.996 956.409,324.031 	"/>
	<polyline fill="none" stroke="#FFFFFF" stroke-miterlimit="10" points="955.116,315.449 962.882,315.076 959.363,322.123 	"/>
	<polyline fill="none" stroke="#FFFFFF" stroke-miterlimit="10" points="958.069,313.542 965.836,313.164 962.32,320.203 	"/>
</g>
<g>
	<polyline fill="none" stroke="#FFFFFF" stroke-miterlimit="10" points="450.359,279.301 450.78,287.12 443.778,283.628 	"/>
	<polyline fill="none" stroke="#FFFFFF" stroke-miterlimit="10" points="452.275,282.27 452.696,290.084 445.696,286.592 	"/>
</g>
<g>
	<polyline fill="none" stroke="#FFFFFF" stroke-miterlimit="10" points="462.543,311.755 470.237,312.829 465.499,319.092 	"/>
	<polyline fill="none" stroke="#FFFFFF" stroke-miterlimit="10" points="465.792,310.427 473.488,311.5 468.748,317.759 	"/>
</g>
<g>
	<polyline fill="none" stroke="#FFFFFF" stroke-miterlimit="10" points="476.101,305.622 483.621,303.655 481.609,311.269 	"/>
	<polyline fill="none" stroke="#FFFFFF" stroke-miterlimit="10" points="478.605,303.144 486.123,301.182 484.109,308.787 	"/>
</g>
<g>
	<polyline fill="none" stroke="#FFFFFF" stroke-miterlimit="10" points="596.309,315.474 603.965,314.145 601.333,321.557 	"/>
	<polyline fill="none" stroke="#FFFFFF" stroke-miterlimit="10" points="599.005,313.211 606.66,311.881 604.028,319.294 	"/>
</g>
<g>
	<polyline fill="none" stroke="#FFFFFF" stroke-miterlimit="10" points="736.769,252.415 743.508,256.306 736.803,260.334 	"/>
	<polyline fill="none" stroke="#FFFFFF" stroke-miterlimit="10" points="740.275,252.402 747.015,256.289 740.31,260.322 	"/>
</g>
<g>
	<polyline fill="none" stroke="#FFFFFF" stroke-miterlimit="10" points="1081.097,295.761 1088.706,297.354 1083.557,303.274 	"/>
	<polyline fill="none" stroke="#FFFFFF" stroke-miterlimit="10" points="1084.435,294.654 1092.039,296.247 1086.894,302.171 	"/>
</g>
<g>
	<polyline fill="none" stroke="#FFFFFF" stroke-miterlimit="10" points="598.895,301.173 591.231,302.427 593.932,295.036 	"/>
	<polyline fill="none" stroke="#FFFFFF" stroke-miterlimit="10" points="596.178,303.408 588.51,304.662 591.213,297.279 	"/>
</g>
<g>
	<path d="M607.637,257.691h0.834v10.538h6.591v0.775h-7.425V257.691z"/>
	<path d="M616.713,266.612v-0.033c0-1.712,1.459-2.682,3.576-2.682c1.139,0,1.924,0.145,2.709,0.356v-0.356
		c0-1.665-1.01-2.521-2.693-2.521c-0.995,0-1.812,0.274-2.565,0.662l-0.289-0.695c0.898-0.419,1.78-0.71,2.902-0.71
		c1.106,0,1.989,0.307,2.582,0.905c0.545,0.549,0.833,1.309,0.833,2.327v5.139h-0.77v-1.374c-0.561,0.792-1.571,1.568-3.127,1.568
		C618.349,269.198,616.713,268.325,616.713,266.612z M623.015,265.917v-0.938c-0.69-0.178-1.604-0.372-2.774-0.372
		c-1.732,0-2.694,0.776-2.694,1.924v0.032c0,1.196,1.122,1.891,2.373,1.891C621.588,268.455,623.015,267.42,623.015,265.917z"/>
	<path d="M631.579,257.691h3.736c3.528,0,5.966,2.44,5.966,5.624v0.032c0,3.184-2.438,5.656-5.966,5.656h-3.736V257.691z
		 M635.314,268.229c3.127,0,5.1-2.15,5.1-4.849v-0.033c0-2.683-1.973-4.88-5.1-4.88h-2.902v9.762H635.314z"/>
	<path d="M643.382,264.899v-0.032c0-2.392,1.667-4.299,3.88-4.299c2.294,0,3.752,1.875,3.752,4.315c0,0.145,0,0.193-0.016,0.323
		h-6.783c0.145,2.052,1.604,3.249,3.207,3.249c1.267,0,2.134-0.566,2.807-1.293l0.545,0.485c-0.834,0.905-1.812,1.552-3.383,1.552
		C645.241,269.198,643.382,267.469,643.382,264.899z M650.164,264.495c-0.111-1.665-1.058-3.199-2.934-3.199
		c-1.62,0-2.871,1.373-3.016,3.199H650.164z"/>
	<path d="M653.308,260.761h0.786v1.536c0.545-0.97,1.46-1.729,2.95-1.729c2.069,0,3.271,1.422,3.271,3.394v5.042h-0.785v-4.896
		c0-1.697-0.945-2.812-2.598-2.812c-1.604,0-2.839,1.228-2.839,2.941v4.767h-0.786V260.761z"/>
	<path d="M663.571,266.887v-5.397h-1.186v-0.728h1.186v-2.634h0.786v2.634h2.87v0.728h-2.87v5.316c0,1.18,0.689,1.6,1.635,1.6
		c0.401,0,0.738-0.081,1.203-0.291v0.744c-0.417,0.193-0.817,0.291-1.33,0.291C664.598,269.149,663.571,268.455,663.571,266.887z"/>
	<path d="M674.54,257.691h0.786l7.746,9.842v-9.842h0.801v11.313h-0.624l-7.907-10.051v10.051h-0.802V257.691z"/>
	<path d="M686.472,264.915v-0.032c0-2.311,1.779-4.315,4.217-4.315c2.422,0,4.186,1.971,4.186,4.282v0.033
		c0,2.311-1.78,4.315-4.217,4.315C688.235,269.198,686.472,267.226,686.472,264.915z M694.024,264.915v-0.032
		c0-1.988-1.476-3.571-3.367-3.571c-1.941,0-3.336,1.6-3.336,3.539v0.033c0,1.988,1.475,3.572,3.367,3.572
		C692.629,268.455,694.024,266.854,694.024,264.915z"/>
	<path d="M697.312,257.53h0.979v1.083h-0.979V257.53z M697.408,260.761h0.786v8.242h-0.786V260.761z"/>
	<path d="M701.288,260.761h0.786v2.344c0.642-1.471,2.005-2.537,3.624-2.472v0.872h-0.08c-1.892,0-3.544,1.438-3.544,4.121v3.377
		h-0.786V260.761z"/>
	<path d="M706.742,264.899v-0.032c0-2.392,1.667-4.299,3.88-4.299c2.292,0,3.752,1.875,3.752,4.315c0,0.145,0,0.193-0.015,0.323
		h-6.783c0.144,2.052,1.602,3.249,3.205,3.249c1.269,0,2.133-0.566,2.807-1.293l0.547,0.485c-0.835,0.905-1.813,1.552-3.384,1.552
		C708.602,269.198,706.742,267.469,706.742,264.899z M713.524,264.495c-0.113-1.665-1.059-3.199-2.935-3.199
		c-1.619,0-2.87,1.373-3.014,3.199H713.524z"/>
</g>
<rect x="647.957" y="344.109" fill="#7AB92F" width="109.649" height="46.889"/>
<g>
	<path fill="#FFFFFF" d="M652.612,349.487h3.49c0.937,0,1.675,0.271,2.144,0.732c0.34,0.354,0.527,0.791,0.527,1.322v0.023
		c0,1.075-0.656,1.629-1.301,1.913c0.973,0.295,1.757,0.862,1.757,1.995v0.023c0,1.417-1.183,2.254-2.975,2.254h-3.643V349.487z
		 M655.949,353.17c1.114,0,1.886-0.508,1.886-1.475v-0.023c0-0.815-0.644-1.346-1.814-1.346h-2.494v2.844H655.949z M656.278,356.912
		c1.241,0,2.015-0.555,2.015-1.476v-0.023c0-0.897-0.75-1.416-2.179-1.416h-2.588v2.915H656.278z"/>
	<path fill="#FFFFFF" d="M660.256,349.487h0.925v8.262h-0.925V349.487z"/>
	<path fill="#FFFFFF" d="M661.988,349.487h1.03l2.916,7.118l2.929-7.118h0.995l-3.525,8.321h-0.82L661.988,349.487z"/>
	<path fill="#FFFFFF" d="M669.738,353.643v-0.024c0-2.278,1.697-4.273,4.192-4.273s4.17,1.972,4.17,4.25v0.023
		c0,2.278-1.699,4.273-4.193,4.273C671.412,357.892,669.738,355.92,669.738,353.643z M677.14,353.643v-0.024
		c0-1.877-1.357-3.412-3.232-3.412c-1.874,0-3.21,1.511-3.21,3.388v0.023c0,1.876,1.359,3.411,3.233,3.411
		S677.14,355.519,677.14,353.643z"/>
	<path fill="#FFFFFF" d="M679.031,354.292v-4.804h0.926v4.745c0,1.782,0.938,2.786,2.507,2.786c1.512,0,2.471-0.921,2.471-2.727
		v-4.804h0.927v4.733c0,2.407-1.371,3.659-3.421,3.659C680.414,357.88,679.031,356.628,679.031,354.292z"/>
	<path fill="#FFFFFF" d="M689.896,349.429h0.868l3.735,8.321h-0.995l-0.96-2.183h-4.463l-0.973,2.183h-0.948L689.896,349.429z
		 M692.182,354.729l-1.863-4.214l-1.873,4.214H692.182z"/>
	<path fill="#FFFFFF" d="M694.379,353.643v-0.024c0-2.337,1.733-4.273,4.146-4.273c1.488,0,2.379,0.531,3.198,1.311l-0.633,0.685
		c-0.69-0.661-1.464-1.133-2.576-1.133c-1.815,0-3.174,1.488-3.174,3.388v0.023c0,1.912,1.369,3.411,3.174,3.411
		c1.124,0,1.862-0.437,2.648-1.192l0.608,0.602c-0.856,0.874-1.793,1.452-3.279,1.452
		C696.123,357.892,694.379,356.015,694.379,353.643z"/>
	<path fill="#FFFFFF" d="M705.112,349.487h2.847c2.577,0,4.357,1.782,4.357,4.108v0.023c0,2.325-1.78,4.131-4.357,4.131h-2.847
		V349.487z M707.959,356.888c2.073,0,3.396-1.417,3.396-3.246v-0.024c0-1.83-1.323-3.27-3.396-3.27h-1.922v6.539H707.959z"/>
	<path fill="#FFFFFF" d="M713.378,349.487h5.926v0.85h-5.001v2.821h4.474v0.85h-4.474v2.892h5.059v0.85h-5.983V349.487z"/>
	<path fill="#FFFFFF" d="M722.59,353.643v-0.024c0-2.266,1.651-4.273,4.112-4.273c1.381,0,2.235,0.402,3.057,1.098l-0.598,0.708
		c-0.633-0.555-1.335-0.944-2.495-0.944c-1.816,0-3.116,1.547-3.116,3.388v0.023c0,1.971,1.253,3.435,3.245,3.435
		c0.937,0,1.804-0.365,2.366-0.826v-2.054h-2.495v-0.838h3.385v3.292c-0.761,0.686-1.908,1.264-3.291,1.264
		C724.184,357.892,722.59,356.003,722.59,353.643z"/>
	<path fill="#FFFFFF" d="M734.273,349.429h0.867l3.736,8.321h-0.995l-0.961-2.183h-4.462l-0.974,2.183h-0.947L734.273,349.429z
		 M736.559,354.729l-1.863-4.214l-1.874,4.214H736.559z"/>
	<path fill="#FFFFFF" d="M739.176,354.292v-4.804h0.927v4.745c0,1.782,0.937,2.786,2.506,2.786c1.512,0,2.471-0.921,2.471-2.727
		v-4.804h0.927v4.733c0,2.407-1.371,3.659-3.421,3.659C740.559,357.88,739.176,356.628,739.176,354.292z"/>
	<path fill="#FFFFFF" d="M747.302,349.487h2.845c2.577,0,4.357,1.782,4.357,4.108v0.023c0,2.325-1.78,4.131-4.357,4.131h-2.845
		V349.487z M750.146,356.888c2.074,0,3.397-1.417,3.397-3.246v-0.024c0-1.83-1.323-3.27-3.397-3.27h-1.92v6.539H750.146z"/>
</g>
<rect x="652.834" y="360.917" fill="#FFFFFF" width="101.195" height="28.773"/>
<path fill-rule="evenodd" clip-rule="evenodd" fill="#4E91CA" d="M678.369,366.916c-0.046-0.042-0.088-0.076-0.122-0.109
	c-0.731-0.545-1.572-0.763-2.462-0.754c-1.81,0.004-3.316,0.767-4.521,2.071c-1.303,1.4-2.348,3.01-3.201,4.733
	c-1.289,2.604-2.012,5.329-1.755,8.268c0.084,0.867,0.379,1.622,0.957,2.268c0.661,0.738,1.469,1.267,2.343,1.714
	c0.157,0.093,0.329,0.16,0.523,0.252c0.403-1.791,0.808-3.526,1.21-5.299c-0.141-0.034-0.253-0.059-0.374-0.097
	c-0.353-0.117-0.72-0.197-1.064-0.348c-0.494-0.218-0.695-0.625-0.536-1.144c0.146-0.483,0.349-0.939,0.57-1.379
	c1.03-2.046,2.075-4.079,3.124-6.113c0.149-0.302,0.374-0.515,0.765-0.503c0.374,0.004,0.645,0.201,0.929,0.402
	c0.215,0.155,0.439,0.314,0.669,0.47C676.426,369.846,677.395,368.383,678.369,366.916z M671.974,379.875
	c-0.457,1.883-0.915,3.749-1.381,5.639c0.404,0.097,0.777,0.18,1.165,0.26c0.466-1.891,0.925-3.752,1.386-5.626
	C672.743,380.047,672.374,379.971,671.974,379.875z M676.426,372.257c1.214-1.581,2.408-3.136,3.618-4.699
	c-0.298-0.202-0.572-0.373-0.839-0.566c-0.146-0.104-0.208-0.075-0.3,0.067c-0.767,1.149-1.544,2.281-2.313,3.421
	c-0.283,0.411-0.562,0.83-0.853,1.253C675.968,371.914,676.186,372.077,676.426,372.257z"/>
<path fill-rule="evenodd" clip-rule="evenodd" fill="none" stroke="#6F6F6E" stroke-width="0.5" stroke-miterlimit="10" d="
	M685.116,375.238c0,6.896-5.55,12.489-12.402,12.489c-6.842,0-12.396-5.593-12.396-12.489c0-6.905,5.555-12.498,12.396-12.498
	C679.566,362.74,685.116,368.333,685.116,375.238z"/>
<path fill-rule="evenodd" clip-rule="evenodd" fill="none" stroke="#6F6F6E" stroke-width="0.5" stroke-miterlimit="10" d="
	M745.817,375.238c0,7.177-5.774,13.001-12.901,13.001c-7.13,0-12.913-5.824-12.913-13.001c0-7.186,5.783-13.005,12.913-13.005
	C740.043,362.233,745.817,368.052,745.817,375.238z"/>
<g>
	<path fill-rule="evenodd" clip-rule="evenodd" fill="#6F6F6E" d="M723.526,381.774c2.271,0,4.515,0,6.774,0
		c0-1.589,0-3.161,0-4.754c1.746,0,3.485,0,5.24,0c0,1.602,0,3.178,0,4.759c2.259,0,4.498,0,6.76,0
		c-0.049-0.079-0.078-0.139-0.124-0.193c-0.86-1.358-1.727-2.716-2.588-4.07c-2.108-3.312-4.209-6.625-6.322-9.924
		c-0.055-0.101-0.055-0.172,0.008-0.26c0.229-0.352,0.445-0.716,0.666-1.069c0.198-0.335,0.412-0.671,0.615-1.002
		c-0.121-0.101-0.225-0.176-0.337-0.276c-0.437,0.716-0.866,1.421-1.307,2.134c-0.462-0.729-0.915-1.434-1.382-2.155
		c-0.12,0.097-0.228,0.18-0.345,0.264c0.029,0.055,0.046,0.092,0.075,0.126c0.428,0.659,0.857,1.333,1.294,1.996
		c0.066,0.084,0.066,0.151,0,0.251c-2.787,4.381-5.582,8.762-8.375,13.139C723.964,381.074,723.748,381.422,723.526,381.774z"/>
</g>
<path fill-rule="evenodd" clip-rule="evenodd" fill="#E20A13" stroke="#6F6F6E" stroke-width="0.5" stroke-miterlimit="10" d="
	M715.869,375.238c0,7.265-5.842,13.147-13.056,13.147c-7.205,0-13.055-5.882-13.055-13.147c0-7.274,5.85-13.165,13.055-13.165
	C710.027,362.074,715.869,367.964,715.869,375.238z"/>
<polygon fill="#FFFFFF" points="711.895,372.676 705.351,372.676 705.351,366.082 700.275,366.082 700.275,372.676 693.739,372.676 
	693.739,377.791 700.275,377.791 700.275,384.386 705.351,384.386 705.351,377.791 711.895,377.791 "/>
<rect x="791.354" y="388.348" fill="#7AB92F" width="109.655" height="46.889"/>
<g>
	<g>
		<path fill="#FFFFFF" d="M795.54,394.994h2.791c0.748,0,1.338,0.217,1.713,0.584c0.271,0.284,0.421,0.633,0.421,1.057v0.019
			c0,0.859-0.524,1.302-1.039,1.528c0.776,0.237,1.404,0.689,1.404,1.596v0.019c0,1.132-0.945,1.801-2.379,1.801h-2.911V394.994z
			 M798.208,397.937c0.89,0,1.508-0.405,1.508-1.179v-0.018c0-0.652-0.515-1.076-1.451-1.076h-1.995v2.273H798.208z
			 M798.471,400.929c0.992,0,1.611-0.443,1.611-1.18v-0.018c0-0.717-0.6-1.132-1.742-1.132h-2.07v2.331H798.471z"/>
		<path fill="#FFFFFF" d="M801.655,394.994h0.739v6.605h-0.739V394.994z"/>
		<path fill="#FFFFFF" d="M803.041,394.994h0.824l2.332,5.69l2.34-5.69h0.797l-2.819,6.653h-0.655L803.041,394.994z"/>
		<path fill="#FFFFFF" d="M809.241,398.315v-0.02c0-1.821,1.356-3.416,3.352-3.416s3.334,1.576,3.334,3.397v0.019
			c0,1.822-1.358,3.417-3.353,3.417S809.241,400.137,809.241,398.315z M815.158,398.315v-0.02c0-1.5-1.086-2.727-2.584-2.727
			s-2.566,1.208-2.566,2.708v0.019c0,1.501,1.087,2.728,2.585,2.728C814.092,401.023,815.158,399.815,815.158,398.315z"/>
		<path fill="#FFFFFF" d="M816.676,398.834v-3.84h0.74v3.793c0,1.426,0.748,2.227,2.003,2.227c1.208,0,1.976-0.736,1.976-2.18v-3.84
			h0.74v3.784c0,1.925-1.095,2.925-2.734,2.925C817.781,401.703,816.676,400.703,816.676,398.834z"/>
		<path fill="#FFFFFF" d="M825.365,394.946h0.693l2.987,6.652h-0.796l-0.769-1.745h-3.566l-0.778,1.745h-0.758L825.365,394.946z
			 M827.191,399.183l-1.488-3.369l-1.498,3.369H827.191z"/>
		<path fill="#FFFFFF" d="M828.953,398.315v-0.02c0-1.868,1.385-3.416,3.314-3.416c1.189,0,1.9,0.425,2.557,1.048l-0.505,0.547
			c-0.553-0.528-1.172-0.906-2.061-0.906c-1.452,0-2.538,1.188-2.538,2.708v0.019c0,1.529,1.097,2.728,2.538,2.728
			c0.899,0,1.488-0.35,2.116-0.953l0.486,0.48c-0.684,0.699-1.433,1.162-2.621,1.162
			C830.349,401.713,828.953,400.212,828.953,398.315z"/>
		<path fill="#FFFFFF" d="M837.541,394.994h2.274c2.061,0,3.484,1.424,3.484,3.283v0.019c0,1.859-1.424,3.303-3.484,3.303h-2.274
			V394.994z M839.815,400.91c1.658,0,2.716-1.132,2.716-2.595v-0.02c0-1.462-1.058-2.613-2.716-2.613h-1.535v5.227H839.815z"/>
		<path fill="#FFFFFF" d="M844.152,394.994h4.738v0.68h-3.999v2.254h3.577v0.68h-3.577v2.312h4.046v0.679h-4.785V394.994z"/>
		<path fill="#FFFFFF" d="M851.522,398.315v-0.02c0-1.812,1.319-3.416,3.286-3.416c1.104,0,1.789,0.321,2.444,0.877l-0.479,0.566
			c-0.505-0.442-1.066-0.754-1.993-0.754c-1.452,0-2.491,1.237-2.491,2.708v0.019c0,1.577,1.001,2.747,2.594,2.747
			c0.749,0,1.441-0.292,1.891-0.662v-1.642h-1.993v-0.669h2.705v2.633c-0.608,0.547-1.526,1.01-2.631,1.01
			C852.796,401.713,851.522,400.203,851.522,398.315z"/>
		<path fill="#FFFFFF" d="M858.152,398.315v-0.02c0-1.821,1.356-3.416,3.353-3.416c1.993,0,3.333,1.576,3.333,3.397v0.019
			c0,1.822-1.358,3.417-3.353,3.417C859.49,401.713,858.152,400.137,858.152,398.315z M864.069,398.315v-0.02
			c0-1.5-1.085-2.727-2.584-2.727c-1.498,0-2.565,1.208-2.565,2.708v0.019c0,1.501,1.086,2.728,2.585,2.728
			C863.002,401.023,864.069,399.815,864.069,398.315z"/>
		<path fill="#FFFFFF" d="M865.587,398.834v-3.84h0.74v3.793c0,1.426,0.749,2.227,2.004,2.227c1.208,0,1.977-0.736,1.977-2.18v-3.84
			h0.739v3.784c0,1.925-1.096,2.925-2.734,2.925C866.693,401.703,865.587,400.703,865.587,398.834z"/>
		<path fill="#FFFFFF" d="M872.086,394.994h2.819c0.806,0,1.451,0.245,1.863,0.661c0.318,0.321,0.506,0.782,0.506,1.301v0.019
			c0,1.095-0.749,1.737-1.779,1.925l2.014,2.698H876.6l-1.9-2.566h-1.874v2.566h-0.739V394.994z M874.84,398.362
			c0.982,0,1.686-0.51,1.686-1.359v-0.019c0-0.81-0.619-1.301-1.677-1.301h-2.023v2.679H874.84z"/>
		<path fill="#FFFFFF" d="M878.146,394.994h0.693l4.129,5.293v-5.293h0.721v6.605h-0.591l-4.232-5.416v5.416h-0.72V394.994z"/>
		<path fill="#FFFFFF" d="M884.897,394.994h0.739v6.605h-0.739V394.994z"/>
		<path fill="#FFFFFF" d="M886.845,394.994h4.738v0.68h-3.999v2.254h3.577v0.68h-3.577v2.312h4.046v0.679h-4.785V394.994z"/>
		<path fill="#FFFFFF" d="M892.407,394.994h2.819c0.806,0,1.451,0.245,1.863,0.661c0.318,0.321,0.506,0.782,0.506,1.301v0.019
			c0,1.095-0.75,1.737-1.779,1.925l2.014,2.698h-0.909l-1.9-2.566h-1.874v2.566h-0.739V394.994z M895.161,398.362
			c0.982,0,1.685-0.51,1.685-1.359v-0.019c0-0.81-0.618-1.301-1.676-1.301h-2.023v2.679H895.161z"/>
	</g>
</g>
<rect x="796.234" y="405.155" fill="#FFFFFF" width="101.196" height="28.777"/>
<path fill-rule="evenodd" clip-rule="evenodd" fill="#4E91CA" d="M821.769,411.155c-0.05-0.043-0.087-0.081-0.123-0.105
	c-0.733-0.545-1.573-0.768-2.46-0.763c-1.81,0.004-3.311,0.772-4.522,2.071c-1.306,1.408-2.346,3.019-3.198,4.732
	c-1.294,2.608-2.019,5.337-1.755,8.276c0.077,0.859,0.373,1.622,0.956,2.26c0.662,0.737,1.469,1.271,2.333,1.72
	c0.168,0.093,0.337,0.163,0.529,0.251c0.407-1.798,0.807-3.53,1.211-5.3c-0.134-0.033-0.255-0.06-0.371-0.096
	c-0.357-0.113-0.724-0.202-1.064-0.356c-0.499-0.213-0.694-0.616-0.537-1.141c0.146-0.474,0.346-0.935,0.569-1.383
	c1.032-2.038,2.078-4.071,3.121-6.105c0.154-0.306,0.378-0.516,0.766-0.507c0.374,0.013,0.645,0.201,0.927,0.407
	c0.222,0.15,0.446,0.314,0.675,0.469C819.822,414.082,820.792,412.623,821.769,411.155z M815.38,424.114
	c-0.467,1.882-0.924,3.743-1.381,5.639c0.394,0.092,0.773,0.177,1.159,0.263c0.467-1.894,0.92-3.755,1.386-5.633
	C816.141,424.29,815.77,424.202,815.38,424.114z M819.822,416.501c1.215-1.59,2.408-3.142,3.62-4.705
	c-0.301-0.195-0.575-0.368-0.836-0.565c-0.15-0.109-0.209-0.067-0.305,0.071c-0.762,1.146-1.538,2.276-2.313,3.412
	c-0.282,0.415-0.558,0.831-0.85,1.259C819.369,416.144,819.585,416.315,819.822,416.501z"/>
<path fill-rule="evenodd" clip-rule="evenodd" fill="none" stroke="#6F6F6E" stroke-width="0.5" stroke-miterlimit="10" d="
	M828.513,419.473c0,6.905-5.55,12.493-12.393,12.493c-6.849,0-12.401-5.588-12.401-12.493c0-6.901,5.553-12.492,12.401-12.492
	C822.963,406.98,828.513,412.571,828.513,419.473z"/>
<path fill-rule="evenodd" clip-rule="evenodd" fill="none" stroke="#6F6F6E" stroke-width="0.5" stroke-miterlimit="10" d="
	M889.219,419.473c0,7.19-5.779,13.005-12.904,13.005c-7.127,0-12.91-5.814-12.91-13.005c0-7.186,5.783-13.005,12.91-13.005
	C883.439,406.468,889.219,412.287,889.219,419.473z"/>
<g>
	<path fill-rule="evenodd" clip-rule="evenodd" fill="#6F6F6E" d="M866.924,426.01c2.276,0,4.518,0,6.772,0c0-1.585,0-3.157,0-4.751
		c1.748,0,3.49,0,5.246,0c0,1.598,0,3.178,0,4.763c2.256,0,4.492,0,6.761,0c-0.05-0.085-0.084-0.143-0.121-0.197
		c-0.865-1.362-1.734-2.721-2.591-4.074c-2.109-3.308-4.216-6.621-6.324-9.924c-0.063-0.093-0.055-0.165,0.009-0.256
		c0.225-0.357,0.444-0.717,0.661-1.077c0.204-0.323,0.407-0.658,0.62-0.994c-0.117-0.101-0.225-0.181-0.337-0.276
		c-0.434,0.721-0.866,1.42-1.306,2.134c-0.463-0.734-0.92-1.438-1.386-2.155c-0.117,0.093-0.226,0.176-0.342,0.272
		c0.025,0.042,0.05,0.084,0.071,0.118c0.428,0.662,0.856,1.329,1.293,1.991c0.063,0.088,0.063,0.159,0,0.252
		c-2.792,4.38-5.583,8.766-8.374,13.143C867.36,425.313,867.148,425.66,866.924,426.01z"/>
</g>
<ellipse fill-rule="evenodd" clip-rule="evenodd" fill="#E20A13" stroke="#6F6F6E" stroke-width="0.5" stroke-miterlimit="10" cx="846.216" cy="419.473" rx="13.052" ry="13.152"/>
<polygon fill="#FFFFFF" points="855.292,416.919 848.748,416.919 848.748,410.328 843.682,410.328 843.682,416.919 837.138,416.919 
	837.138,422.025 843.682,422.025 843.682,428.62 848.748,428.62 848.748,422.025 855.292,422.025 "/>
<rect x="711.404" y="303.614" fill="#FFFFFF" stroke="#4E91CA" stroke-miterlimit="10" width="23.264" height="23.444"/>
<path fill-rule="evenodd" clip-rule="evenodd" fill="#6F6F6E" d="M713.643,323.733c0.232-0.348,0.444-0.691,0.657-1.031
	c2.791-4.381,5.583-8.758,8.374-13.143c0.063-0.092,0.063-0.16,0-0.248c-0.437-0.667-0.86-1.325-1.29-1.991
	c-0.024-0.042-0.049-0.076-0.073-0.122c0.115-0.092,0.225-0.172,0.34-0.272c0.467,0.721,0.924,1.43,1.381,2.159
	c0.45-0.713,0.878-1.413,1.311-2.13c0.117,0.084,0.221,0.168,0.338,0.265c-0.209,0.34-0.416,0.675-0.616,1.01
	c-0.221,0.356-0.44,0.712-0.665,1.061c-0.063,0.105-0.066,0.168-0.009,0.264c2.109,3.304,4.211,6.611,6.319,9.924
	c0.866,1.354,1.729,2.717,2.596,4.067c0.037,0.063,0.071,0.122,0.121,0.196c-2.268,0-4.506,0-6.761,0c0-1.58,0-3.161,0-4.75
	c-1.756,0-3.499,0-5.246,0c0,1.585,0,3.157,0,4.741C718.164,323.733,715.926,323.733,713.643,323.733z"/>
<g>
	<rect x="833.014" y="337.493" fill="#FFFFFF" stroke="#4E91CA" stroke-miterlimit="10" width="23.26" height="23.445"/>
	<path fill-rule="evenodd" clip-rule="evenodd" fill="#6F6F6E" d="M835.257,357.612c0.221-0.356,0.438-0.691,0.652-1.04
		c2.792-4.376,5.584-8.753,8.375-13.135c0.063-0.092,0.063-0.159-0.004-0.256c-0.434-0.657-0.861-1.325-1.29-1.987
		c-0.025-0.037-0.046-0.079-0.079-0.122c0.121-0.088,0.233-0.176,0.35-0.272c0.466,0.726,0.92,1.434,1.382,2.155
		c0.439-0.708,0.869-1.413,1.306-2.129c0.117,0.092,0.221,0.176,0.341,0.268c-0.207,0.336-0.42,0.675-0.62,1.006
		c-0.22,0.356-0.437,0.721-0.664,1.069c-0.063,0.105-0.067,0.168-0.01,0.256c2.113,3.308,4.215,6.619,6.318,9.932
		c0.866,1.345,1.732,2.708,2.598,4.067c0.042,0.054,0.074,0.117,0.119,0.197c-2.262,0-4.504,0-6.763,0c0-1.584,0-3.166,0-4.758
		c-1.756,0-3.491,0-5.238,0c0,1.584,0,3.161,0,4.75C839.771,357.612,837.527,357.612,835.257,357.612z"/>
</g>
<g>
	<g>
		<g>
			<polygon fill="#2E60A5" points="521.453,442 511.098,460 507.434,460 516.872,443 501.748,443 358,443 358,440 501.748,440 
				516.872,440 507.434,424 511.098,424 			"/>
		</g>
	</g>
</g>
<g>
	<g>
		<g>
			<polygon fill="#2E60A5" points="355.227,442 365.582,424 369.246,424 359.808,440 374.932,440 519,440 519,443 374.932,443 
				359.808,443 369.246,460 365.582,460 			"/>
		</g>
	</g>
</g>
<g>
	<path fill="#134C9A" d="M416.479,416.816v-0.044c0-1.86,1.334-3.184,3.202-3.854c-1.445-0.672-2.668-1.792-2.668-3.608v-0.045
		c0-2.419,2.468-4.145,5.314-4.145c2.846,0,5.314,1.726,5.314,4.145v0.045c0,1.816-1.223,2.937-2.668,3.608
		c1.846,0.694,3.202,1.972,3.202,3.831v0.045c0,2.666-2.534,4.46-5.848,4.46C419.014,421.254,416.479,419.438,416.479,416.816z
		 M426.396,416.772v-0.046c0-1.747-1.801-2.979-4.069-2.979c-2.269,0-4.069,1.232-4.069,2.979v0.046
		c0,1.591,1.513,2.934,4.069,2.934C424.884,419.706,426.396,418.363,426.396,416.772z M425.884,409.422v-0.045
		c0-1.546-1.534-2.711-3.558-2.711s-3.557,1.143-3.557,2.711v0.045c0,1.704,1.578,2.868,3.557,2.868
		S425.884,411.126,425.884,409.422z"/>
	<path fill="#134C9A" d="M429.846,405.344h1.756v9.366l8.938-9.366h2.269l-6.67,6.856l6.959,8.829h-2.201l-5.981-7.597l-3.313,3.384
		v4.213h-1.756V405.344z"/>
	<path fill="#134C9A" d="M444.147,405.344h1.778l5.67,8.56l5.669-8.56h1.779v15.686h-1.757v-12.705l-5.67,8.402h-0.089l-5.67-8.38
		v12.683h-1.712V405.344z"/>
</g>
<g>
	<g>
		<g>
			<g>
				<polygon fill="#2E60A5" points="521.453,494 511.098,512 507.434,512 516.872,495 19,495 19,492 516.872,492 507.434,476 
					511.098,476 				"/>
			</g>
		</g>
	</g>
	<g>
		<g>
			<g>
				<polygon fill="#2E60A5" points="18.097,494 28.452,476 32.116,476 22.678,492 520,492 520,495 22.678,495 32.116,512 
					28.452,512 				"/>
			</g>
		</g>
	</g>
</g>
<g>
	<path fill="#134C9A" d="M247.408,464.736l-2.782,0.871l-0.4-1.359l3.604-1.253h1.222v14.974h-1.644V464.736z"/>
	<path fill="#134C9A" d="M250.631,475.569l1.201-1.084c1.139,1.402,2.509,2.21,4.321,2.21c1.791,0,3.225-1.147,3.225-2.89v-0.042
		c0-1.848-1.708-2.867-4.131-2.867h-0.948l-0.337-0.998l4.658-5.29h-7.208v-1.507h9.421v1.231l-4.636,5.183
		c2.571,0.212,4.868,1.466,4.868,4.185v0.042c0,2.655-2.192,4.481-4.932,4.481C253.666,478.224,251.832,477.141,250.631,475.569z"/>
	<path fill="#134C9A" d="M262.979,463.102h1.665v8.878l8.473-8.878h2.149l-6.323,6.499l6.597,8.368h-2.087l-5.669-7.201
		l-3.141,3.209v3.992h-1.665V463.102z"/>
	<path fill="#134C9A" d="M276.527,463.102h1.686l5.375,8.113l5.375-8.113h1.687v14.867h-1.666v-12.043l-5.375,7.965h-0.084
		l-5.375-7.943v12.021h-1.623V463.102z"/>
</g>
<g>
	<g>
		<g>
			<g>
				<polygon fill="#2E60A5" points="1277.074,549.001 1266.719,567 1263.055,567 1272.493,550 522,550 522,547 1272.493,547 
					1263.055,531 1266.719,531 				"/>
			</g>
		</g>
	</g>
	<g>
		<g>
			<g>
				<polygon fill="#2E60A5" points="520.284,548.999 530.639,531 534.303,531 524.865,547 1275,547 1275,550 524.865,550 
					534.303,567 530.639,567 				"/>
			</g>
		</g>
	</g>
</g>
<g>
	<path fill="#134C9A" d="M870.623,531.532l5.355-4.758c2.255-2.039,3.075-3.186,3.075-4.673c0-1.741-1.368-2.847-2.971-2.847
		c-1.687,0-2.781,0.893-3.963,2.55l-1.223-0.893c1.328-1.997,2.72-3.164,5.313-3.164c2.654,0,4.572,1.784,4.572,4.205v0.042
		c0,2.167-1.138,3.505-3.73,5.777l-3.941,3.526h7.82v1.528h-10.308V531.532z"/>
	<path fill="#134C9A" d="M889.189,529.303h-7.776l-0.422-1.212l8.347-10.237h1.453V527.9h2.299v1.402h-2.299v3.524h-1.602V529.303z
		 M889.189,527.9v-7.668l-6.195,7.668H889.189z"/>
	<path fill="#134C9A" d="M894.709,517.96h1.664v8.878l8.474-8.878h2.149l-6.323,6.499l6.597,8.368h-2.086l-5.671-7.199l-3.14,3.207
		v3.992h-1.664V517.96z"/>
	<path fill="#134C9A" d="M908.257,517.96h1.687l5.373,8.113l5.376-8.113h1.686v14.867h-1.666v-12.042l-5.373,7.964h-0.084
		l-5.375-7.942v12.021h-1.623V517.96z"/>
</g>
<g>
	<g>
		<g>
			<g>
				<polygon fill="#2E60A5" points="1277.074,603.501 1266.719,621 1263.055,621 1272.493,605 358,605 358,602 1272.493,602 
					1263.055,586 1266.719,586 				"/>
			</g>
		</g>
	</g>
	<g>
		<g>
			<g>
				<polygon fill="#2E60A5" points="356.007,603.499 366.362,586 370.026,586 360.588,602 1275,602 1275,605 360.588,605 
					370.026,621 366.362,621 				"/>
			</g>
		</g>
	</g>
</g>
<g>
	<path fill="#134C9A" d="M870.665,585.283l1.202-1.084c1.138,1.402,2.508,2.209,4.32,2.209c1.792,0,3.225-1.146,3.225-2.889v-0.042
		c0-1.849-1.707-2.868-4.131-2.868h-0.948l-0.337-0.998l4.658-5.289h-7.209v-1.508h9.422v1.232l-4.637,5.182
		c2.571,0.213,4.868,1.466,4.868,4.185v0.043c0,2.654-2.191,4.481-4.932,4.481C873.7,587.938,871.867,586.854,870.665,585.283z"/>
	<path fill="#134C9A" d="M881.938,586.387l5.354-4.758c2.255-2.039,3.077-3.186,3.077-4.673c0-1.741-1.37-2.846-2.972-2.846
		c-1.686,0-2.782,0.892-3.964,2.549l-1.222-0.892c1.328-1.997,2.72-3.165,5.312-3.165c2.655,0,4.573,1.784,4.573,4.206v0.041
		c0,2.166-1.138,3.505-3.73,5.777l-3.941,3.526h7.82v1.529h-10.307V586.387z"/>
	<path fill="#134C9A" d="M894.033,572.814h1.664v8.878l8.474-8.878h2.149l-6.322,6.499l6.596,8.369h-2.085l-5.671-7.2l-3.141,3.207
		v3.993h-1.664V572.814z"/>
	<path fill="#134C9A" d="M907.581,572.814h1.687l5.373,8.113l5.375-8.113h1.687v14.868h-1.665V575.64l-5.374,7.965h-0.084
		l-5.374-7.943v12.021h-1.624V572.814z"/>
</g>
</svg>
